<svg width="88" height="36" viewBox="0 0 88 36" fill="none" xmlns="http://www.w3.org/2000/svg">
<path fill-rule="evenodd" clip-rule="evenodd" d="M19.0554 2.05059C18.6982 1.2958 17.8778 0.789062 17.0144 0.789062C16.1709 0.789062 15.3894 1.27134 14.9744 2.0496L0.272734 32.1129C-0.216697 33.0838 0.0695664 34.2577 0.952014 34.9034C1.32714 35.1934 1.81061 35.3537 2.31296 35.3537C2.94532 35.3537 3.41806 35.1697 3.80034 34.7761C3.88502 34.6885 3.99595 34.5604 4.10449 34.3443C5.52428 31.5085 16.1602 9.90607 17.0144 8.17076L23.8927 22.129L23.9461 22.1032L26.3742 26.9678L26.3207 26.9936L29.7647 34.0499C30.033 34.5825 30.5175 34.9945 31.0938 35.18C31.6651 35.3637 32.2726 35.3148 32.802 35.0407C33.3485 34.7806 33.7574 34.324 33.9536 33.7557C34.1479 33.1929 34.1091 32.5936 33.8453 32.0693L19.0554 2.05059Z" fill="#333333"/>
<path fill-rule="evenodd" clip-rule="evenodd" d="M56.645 1.14996C56.139 0.822389 55.5359 0.707149 54.9449 0.823376C54.3515 0.941181 53.844 1.28098 53.5193 1.77608L43.4999 14.3602L33.5282 1.78023C32.8529 0.752534 31.4496 0.469169 30.3978 1.15094C29.3551 1.871 29.0768 3.25368 29.7666 4.30288L41.2328 19.0781V33.1031C41.2328 34.323 42.2709 35.3536 43.4999 35.3536C44.7501 35.3536 45.7671 34.3437 45.7671 33.1031V19.0781L57.2779 4.30288L57.2803 4.29913C57.9675 3.25368 57.689 1.871 56.645 1.14996Z" fill="#333333"/>
<path fill-rule="evenodd" clip-rule="evenodd" d="M86.0113 11.0112C85.8765 9.59101 85.6062 8.40723 85.1857 7.39375C84.6376 5.98777 83.8606 4.80084 82.8767 3.86688C81.5589 2.55957 79.8396 1.61476 77.9047 1.13485C76.6626 0.816365 75.6589 0.782227 75.285 0.782227H62.1723C60.901 0.782227 59.9053 1.77065 59.9053 3.03257V33.0963C59.9053 34.3369 60.9221 35.3466 62.1723 35.3466C63.4225 35.3466 64.4398 34.3369 64.4398 33.0963V5.28311H75.285C75.3017 5.28311 76.9763 5.29357 78.5653 6.19517C79.438 6.71493 80.0954 7.3673 80.5751 8.18977C81.1766 9.22496 81.4891 10.5179 81.5301 12.1393C81.4891 13.7631 81.1766 15.0566 80.5751 16.0924C80.0954 16.9147 79.438 17.5673 78.5665 18.0864C76.9763 18.9878 75.3017 18.9985 75.285 18.9985H66.3975L68.8321 23.4688L68.8488 23.5H75.285C75.6589 23.5 76.6626 23.4656 77.9043 23.1467C79.8396 22.6672 81.5591 21.7224 82.8759 20.4155C83.8604 19.4812 84.6374 18.2946 85.1851 16.8892C85.6207 15.8402 85.8986 14.6225 86.0109 13.275C86.0519 13.0297 86.0906 11.8441 86.0113 11.0112Z" fill="#333333"/>
<path fill-rule="evenodd" clip-rule="evenodd" d="M32.2391 17.7684C32.1121 17.1928 31.7668 16.7007 31.2664 16.383C30.7658 16.0655 30.1718 15.9599 29.5921 16.0862C28.7652 16.2658 27.9384 16.4629 27.1347 16.6721C16.6234 19.3987 7.45482 24.5674 0.620868 31.6194C0.209165 32.0442 -0.0110993 32.6023 0.000430775 33.1915C0.011762 33.7805 0.253695 34.3299 0.681699 34.7381C1.09738 35.1356 1.64446 35.3544 2.22216 35.3544C2.98215 35.3544 3.50239 35.1517 3.962 34.6774C10.2588 28.1801 18.6601 23.4298 28.2578 20.9407C29.0232 20.7426 29.7927 20.5594 30.5446 20.3955C31.1241 20.2696 31.6194 19.9268 31.9399 19.4301C32.2598 18.934 32.3661 18.3436 32.2391 17.7684Z" fill="#0BCF9E"/>
<path fill-rule="evenodd" clip-rule="evenodd" d="M87.379 31.6201C80.3357 24.3515 70.8546 19.1037 59.9611 16.4451C59.1651 16.2517 58.3514 16.0694 57.5423 15.9036C56.9629 15.7843 56.3702 15.8981 55.8735 16.2221C55.3767 16.5463 55.0371 17.043 54.9175 17.62C54.6708 18.8117 55.4464 19.9803 56.6468 20.225C57.3875 20.3759 58.1461 20.5456 58.9011 20.7293C68.975 23.1881 77.7152 28.0114 84.1762 34.6785C84.599 35.1148 85.1678 35.3552 85.7775 35.3552C86.3558 35.3552 86.9027 35.1361 87.3179 34.7387C87.7461 34.3305 87.9881 33.7813 87.9996 33.1917C88.0109 32.6026 87.7907 32.0444 87.379 31.6201Z" fill="#2EFFA8"/>
</svg>
