<svg xmlns="http://www.w3.org/2000/svg" width="37.89" height="24.427" viewBox="0 0 37.89 24.427">
  <path id="Icon_ionic-ios-cloud-outline" data-name="Icon ionic-ios-cloud-outline" d="M20.184,5.75a11.525,11.525,0,0,1,11.351,9.561,7.587,7.587,0,0,1,5.355,7.243,7.815,7.815,0,0,1-2.14,5.319,7.172,7.172,0,0,1-5.23,2.3H6.371a7.172,7.172,0,0,1-5.23-2.3A7.8,7.8,0,0,1,3.7,15.344a6.432,6.432,0,0,1,1.716-3.575A5.836,5.836,0,0,1,9.651,9.913a5.946,5.946,0,0,1,1.514.195A11.526,11.526,0,0,1,20.184,5.75Zm9.335,22.427A5.191,5.191,0,0,0,33.3,26.5a5.8,5.8,0,0,0,1.592-3.943,5.527,5.527,0,0,0-4.425-5.442,1,1,0,0,1-.818-.876,9.517,9.517,0,0,0-17.289-4.382,1,1,0,0,1-1.2.356,3.955,3.955,0,0,0-1.506-.3,4.186,4.186,0,0,0-4,4.16,1,1,0,0,1-.7.938,5.542,5.542,0,0,0-2.857,2.127A5.993,5.993,0,0,0,1,22.554,5.8,5.8,0,0,0,2.592,26.5a5.191,5.191,0,0,0,3.779,1.68Z" transform="translate(1 -5.75)" fill="#ffa32e"/>
</svg>
