<svg xmlns="http://www.w3.org/2000/svg" width="20.731" height="27.942" viewBox="0 0 20.731 27.942">
  <path id="Path_952" data-name="Path 952" d="M-5342.7-1854.057a1.3,1.3,0,0,1-1.3-1.3v-.863a1.3,1.3,0,0,1,1.3-1.3c0-4.911,2.754-9.056,6.523-10.365l.208-.057a9.572,9.572,0,0,1-7.23-9.281v-.214a1.591,1.591,0,0,1-.8-1.381v-1.594a1.594,1.594,0,0,1,1.594-1.594h17.542a1.6,1.6,0,0,1,1.595,1.594v1.594a1.591,1.591,0,0,1-.8,1.381v.214a9.572,9.572,0,0,1-7.281,9.294l.259.044c3.77,1.31,6.523,5.455,6.523,10.365a1.3,1.3,0,0,1,1.3,1.3v.863a1.3,1.3,0,0,1-1.3,1.3Zm9.07-15.184a7.983,7.983,0,0,0,7.973-7.974h-15.947A7.983,7.983,0,0,0-5333.634-1869.242Zm-8.771-9.569h17.542v-1.594h-17.542Z" transform="translate(5344 1882)" fill="#ffa32e"/>
</svg>
