<svg xmlns="http://www.w3.org/2000/svg" width="28.993" height="26" viewBox="0 0 28.993 26">
  <path id="Icon_awesome-leaf" data-name="Icon awesome-leaf" d="M24.93-1h0A1.726,1.726,0,0,1,26.514.045,17.944,17.944,0,0,1,28,7.231,17.538,17.538,0,0,1,24.265,18.3a13.738,13.738,0,0,1-9.715,5.143,10.405,10.405,0,0,1-1.079.057,9.711,9.711,0,0,1-4.814-1.261,10.288,10.288,0,0,1-2.5-1.97,10.961,10.961,0,0,0-2.344,3.19,2.5,2.5,0,0,1-4.629-1.9,17.119,17.119,0,0,1,4.37-5.829c0-.246,0-.546.009-.882,0-.12,0-.229,0-.311A9.021,9.021,0,0,1,5.727,7.23,10.365,10.365,0,0,1,13.5,3.5h3.749A7.05,7.05,0,0,0,23.407-.1,1.743,1.743,0,0,1,24.93-1ZM13.47,21.5a8.4,8.4,0,0,0,.884-.047l.033,0A11.505,11.505,0,0,0,19.049,20.1a12.139,12.139,0,0,0,3.663-3.061A15.536,15.536,0,0,0,26,7.231a16.344,16.344,0,0,0-1.115-5.91A9.01,9.01,0,0,1,17.249,5.5H13.5a7.841,7.841,0,0,0-3.412.819,8.785,8.785,0,0,0-2.833,2.2,7.06,7.06,0,0,0-1.716,5.651,21.316,21.316,0,0,1,5.07-2.567h0a20.779,20.779,0,0,1,7.37-1.357h.33v2h-.289a23.315,23.315,0,0,0-6.726,1.236,26.1,26.1,0,0,0-5.732,3.165A15.193,15.193,0,0,0,1.04,22.311a.5.5,0,0,0,.931.374,13.217,13.217,0,0,1,3.65-4.626l.815-.683.631.855a8.208,8.208,0,0,0,2.569,2.261A7.734,7.734,0,0,0,13.47,21.5Z" transform="translate(0.995 1.002)" fill="#ffa32e"/>
</svg>
