<svg id="Component_29_3" data-name="Component 29 – 3" xmlns="http://www.w3.org/2000/svg" width="23" height="23.002" viewBox="0 0 23 23.002">
  <path id="Path_31995" data-name="Path 31995" d="M-7151,910a4,4,0,0,1-4-4v-3a4,4,0,0,1,4-4h3a4,4,0,0,1,4,4v3a4,4,0,0,1-4,4Zm-2-7v3a2,2,0,0,0,2,2h3a2,2,0,0,0,2-2v-3a2,2,0,0,0-2-2h-3A2,2,0,0,0-7153,903Zm-10,7a4,4,0,0,1-4-4v-3a4,4,0,0,1,4-4h3a4,4,0,0,1,4,4v3a4,4,0,0,1-4,4Zm-2-7v3a2,2,0,0,0,2,2h3a2,2,0,0,0,2-2v-3a2,2,0,0,0-2-2h-3A2,2,0,0,0-7165,903Zm14-5a4,4,0,0,1-4-4v-3a4,4,0,0,1,4-4h3a4,4,0,0,1,4,4v3a4,4,0,0,1-4,4Zm-2-7v3a2,2,0,0,0,2,2h3a2,2,0,0,0,2-2v-3a2,2,0,0,0-2-2h-3A2,2,0,0,0-7153,891Zm-10,7a4,4,0,0,1-4-4v-3a4,4,0,0,1,4-4h3a4,4,0,0,1,4,4v3a4,4,0,0,1-4,4Zm-2-7v3a2,2,0,0,0,2,2h3a2,2,0,0,0,2-2v-3a2,2,0,0,0-2-2h-3A2,2,0,0,0-7165,891Z" transform="translate(7167 -886.999)"/>
</svg>
