<svg xmlns="http://www.w3.org/2000/svg" width="24.828" height="24.828" viewBox="0 0 24.828 24.828">
  <g id="Icon_feather-eye-off" data-name="Icon feather-eye-off" transform="translate(1.414 1.414)">
    <path id="Path_35" data-name="Path 35" d="M18.44,20.03A10.029,10.029,0,0,1,12.5,22.1c-7,0-11-8.052-11-8.052A18.538,18.538,0,0,1,6.56,8.073M10.4,6.242A9.064,9.064,0,0,1,12.5,6c7,0,11,8.052,11,8.052a18.626,18.626,0,0,1-2.16,3.211m-6.72-1.077a2.993,2.993,0,0,1-5.1-1.311,3.032,3.032,0,0,1,.862-2.956" transform="translate(-1.5 -3.052)" fill="none" stroke="#b1abab" stroke-linecap="round" stroke-linejoin="round" stroke-width="2"/>
    <path id="Path_36" data-name="Path 36" d="M1.5,1.5l22,22" transform="translate(-1.5 -1.5)" fill="none" stroke="#b1abab" stroke-linecap="round" stroke-linejoin="round" stroke-width="2"/>
  </g>
</svg>
