<svg xmlns="http://www.w3.org/2000/svg" xmlns:xlink="http://www.w3.org/1999/xlink" width="318" height="118" viewBox="0 0 318 118">
  <defs>
    <filter id="Path_1096" x="0" y="0" width="318" height="118" filterUnits="userSpaceOnUse">
      <feOffset input="SourceAlpha"/>
      <feGaussianBlur stdDeviation="5" result="blur"/>
      <feFlood flood-color="#cecece" flood-opacity="0.502"/>
      <feComposite operator="in" in2="blur"/>
      <feComposite in="SourceGraphic"/>
    </filter>
  </defs>
  <g id="Group_521" data-name="Group 521" transform="translate(-800.91 -490)">
    <g transform="matrix(1, 0, 0, 1, 800.91, 490)" filter="url(#Path_1096)">
      <path id="Path_1096-2" data-name="Path 1096" d="M266.847,88H21.153A21.073,21.073,0,0,1,0,67.007V20.993A21.073,21.073,0,0,1,21.153,0H266.847A21.073,21.073,0,0,1,288,20.993V67.007A21.073,21.073,0,0,1,266.847,88" transform="translate(15 15)" fill="#fff"/>
    </g>
    <g id="Group_519" data-name="Group 519">
      <path id="Path_1097" data-name="Path 1097" d="M715.793,147.049c3.189,0,5.074,1.989,5.074,5.372s-1.878,5.379-5.074,5.379h-3.614V147.049Zm-2.273,9.544H715.7c2.436,0,3.792-1.49,3.792-4.158,0-2.69-1.349-4.18-3.792-4.18H713.52Z" transform="translate(213.62 380.64)" fill="#333"/>
      <path id="Path_1098" data-name="Path 1098" d="M780.426,169.648c0-2.474,1.445-4.009,3.591-4.009s3.584,1.535,3.584,4.009-1.445,4.009-3.584,4.009-3.591-1.542-3.591-4.009m5.856,0c0-1.826-.894-2.869-2.265-2.869s-2.273,1.043-2.273,2.869.9,2.869,2.273,2.869,2.265-1.043,2.265-2.869" transform="translate(155.903 364.919)" fill="#333"/>
      <path id="Path_1099" data-name="Path 1099" d="M844.545,174.257h-1.319l-1.751-6h-.03l-1.743,6h-1.319l-2.168-7.749H837.5l1.55,6.3h.03l1.751-6.3h1.252l1.758,6.3h.03l1.55-6.3h1.281Z" transform="translate(108.722 364.184)" fill="#333"/>
      <path id="Path_1100" data-name="Path 1100" d="M916,165.773h1.222v1.237h.03a2.593,2.593,0,0,1,2.459-1.371,2.551,2.551,0,0,1,2.682,2.854v5.029h-1.3v-4.8c0-1.252-.589-1.937-1.781-1.937a1.977,1.977,0,0,0-2.019,2.175v4.56H916Z" transform="translate(41.246 364.919)" fill="#333"/>
      <rect id="Rectangle_550" data-name="Rectangle 550" width="1.296" height="10.751" transform="translate(966.117 527.689)" fill="#333"/>
      <path id="Path_1101" data-name="Path 1101" d="M995.712,169.648c0-2.474,1.445-4.009,3.591-4.009s3.584,1.535,3.584,4.009-1.445,4.009-3.584,4.009-3.591-1.542-3.591-4.009m5.856,0c0-1.826-.894-2.869-2.265-2.869s-2.273,1.043-2.273,2.869.9,2.869,2.273,2.869,2.265-1.043,2.265-2.869" transform="translate(-26.165 364.919)" fill="#333"/>
      <path id="Path_1102" data-name="Path 1102" d="M1053.577,171.331c0-1.326,1.021-2.161,2.809-2.265l2.22-.127v-.648c0-.946-.626-1.512-1.7-1.512a1.626,1.626,0,0,0-1.788,1.229h-1.252c.089-1.341,1.237-2.369,3.07-2.369,1.818,0,2.965.983,2.965,2.526v5.357h-1.229v-1.334h-.03a2.825,2.825,0,0,1-2.489,1.468,2.328,2.328,0,0,1-2.578-2.325m5.029-.753v-.633l-2.071.127c-1.043.067-1.639.529-1.639,1.259s.618,1.222,1.55,1.222a2.039,2.039,0,0,0,2.161-1.974" transform="translate(-75.102 364.919)" fill="#333"/>
      <path id="Path_1103" data-name="Path 1103" d="M1107.724,153.926c0-2.429,1.334-4.009,3.286-4.009a2.722,2.722,0,0,1,2.466,1.393h.03v-4.262h1.3V157.8h-1.237v-1.311h-.022a2.773,2.773,0,0,1-2.5,1.445c-1.974,0-3.315-1.58-3.315-4.009m1.326,0c0,1.758.864,2.869,2.235,2.869,1.334,0,2.228-1.133,2.228-2.869s-.894-2.869-2.228-2.869c-1.371,0-2.235,1.118-2.235,2.869" transform="translate(-120.894 380.64)" fill="#333"/>
      <path id="Path_1104" data-name="Path 1104" d="M1192.649,169.648c0-2.474,1.445-4.009,3.591-4.009s3.584,1.535,3.584,4.009-1.446,4.009-3.584,4.009-3.591-1.542-3.591-4.009m5.856,0c0-1.826-.894-2.869-2.265-2.869s-2.273,1.043-2.273,2.869.9,2.869,2.273,2.869,2.265-1.043,2.265-2.869" transform="translate(-192.715 364.919)" fill="#333"/>
      <path id="Path_1105" data-name="Path 1105" d="M1252.542,165.773h1.222v1.237h.03a2.593,2.593,0,0,1,2.459-1.371,2.551,2.551,0,0,1,2.682,2.854v5.029h-1.3v-4.8c0-1.252-.589-1.937-1.781-1.937a1.977,1.977,0,0,0-2.019,2.175v4.56h-1.3Z" transform="translate(-243.366 364.919)" fill="#333"/>
      <path id="Path_1106" data-name="Path 1106" d="M1332.48,154.388v1.87h1.505v1.065h-1.505v4.6c0,.708.3,1.028.961,1.028a5.066,5.066,0,0,0,.536-.037v1.088a4.613,4.613,0,0,1-.82.06c-1.423,0-1.974-.581-1.974-2.071v-4.672h-1.155v-1.065h1.155v-1.87Z" transform="translate(-308.897 374.434)" fill="#333"/>
      <path id="Path_1107" data-name="Path 1107" d="M1369.981,147.048h1.3v4.239h.03a2.566,2.566,0,0,1,2.459-1.371,2.616,2.616,0,0,1,2.727,2.876V157.8h-1.3v-4.768a1.719,1.719,0,0,0-1.833-1.967,2.013,2.013,0,0,0-2.086,2.22V157.8h-1.3Z" transform="translate(-342.685 380.641)" fill="#333"/>
      <path id="Path_1108" data-name="Path 1108" d="M1432.13,171.3a3.068,3.068,0,0,1-3.226,2.354c-2.22,0-3.569-1.542-3.569-3.979,0-2.407,1.371-4.038,3.509-4.038,2.094,0,3.383,1.52,3.383,3.867V170h-5.558v.075a2.215,2.215,0,0,0,2.265,2.459,1.871,1.871,0,0,0,1.922-1.229Zm-5.454-2.317h4.209a2.072,2.072,0,0,0-2.064-2.22,2.178,2.178,0,0,0-2.146,2.22" transform="translate(-389.498 364.919)" fill="#333"/>
      <path id="Path_1109" data-name="Path 1109" d="M715.554,272.556h3.354l7.262,20h-3.257l-1.829-5.405h-7.706l-1.843,5.405h-3.257Zm-1.344,12.1h6.029l-2.98-8.787H717.2Z" transform="translate(216.918 274.499)" fill="#333"/>
      <path id="Path_1110" data-name="Path 1110" d="M845.384,306.156h2.994v2.509h.069a4.911,4.911,0,0,1,4.56-2.786c3.714,0,6.1,2.91,6.1,7.567v.014c0,4.643-2.4,7.567-6.056,7.567a5.008,5.008,0,0,1-4.6-2.744h-.069v7.3h-2.994Zm10.672,7.3v-.014c0-3.1-1.483-5-3.825-5-2.273,0-3.867,1.968-3.867,5v.014c0,3.021,1.608,4.989,3.867,4.989,2.356,0,3.825-1.913,3.825-4.989" transform="translate(100.968 246.318)" fill="#333"/>
      <path id="Path_1111" data-name="Path 1111" d="M958.509,306.156H961.5v2.509h.069a4.911,4.911,0,0,1,4.56-2.786c3.714,0,6.1,2.91,6.1,7.567v.014c0,4.643-2.4,7.567-6.056,7.567a5.008,5.008,0,0,1-4.6-2.744H961.5v7.3h-2.993Zm10.671,7.3v-.014c0-3.1-1.483-5-3.825-5-2.273,0-3.867,1.968-3.867,5v.014c0,3.021,1.608,4.989,3.867,4.989,2.356,0,3.825-1.913,3.825-4.989" transform="translate(5.298 246.318)" fill="#333"/>
      <path id="Path_1112" data-name="Path 1112" d="M1114.618,285.409l-.014-.208h3.021l.028.18c.277,1.843,2.12,2.994,4.8,2.994s4.366-1.206,4.366-3.077v-.014c0-1.608-1.095-2.481-3.742-3.063l-2.176-.457c-3.922-.832-5.821-2.633-5.821-5.6v-.014c.014-3.409,3.021-5.751,7.248-5.751,4.172,0,7.026,2.273,7.234,5.627l.014.236h-3.021l-.014-.194c-.277-1.857-1.885-2.98-4.255-2.98-2.481.014-4.061,1.192-4.061,2.938v.014c0,1.5,1.136,2.411,3.631,2.952l2.19.457c4.13.873,5.9,2.55,5.9,5.641v.014c0,3.645-2.883,5.959-7.622,5.959-4.49,0-7.456-2.134-7.706-5.655" transform="translate(-126.712 276.322)" fill="#333"/>
      <path id="Path_1113" data-name="Path 1113" d="M1232.964,297.6v-8.357h-2.093v-2.384h2.093v-3.8h3.063v3.8h2.73v2.384h-2.73v8.177c0,1.483.665,1.926,1.926,1.926a6.249,6.249,0,0,0,.8-.055v2.315a10.025,10.025,0,0,1-1.525.125c-2.883,0-4.269-1.22-4.269-4.13" transform="translate(-225.04 265.612)" fill="#333"/>
      <path id="Path_1114" data-name="Path 1114" d="M1300.7,313.446v-.028c0-4.657,2.758-7.539,6.9-7.539s6.929,2.869,6.929,7.539v.028c0,4.7-2.744,7.581-6.916,7.581s-6.916-2.9-6.916-7.581m10.769,0v-.028c0-3.187-1.524-5.031-3.867-5.031-2.3,0-3.839,1.843-3.839,5.031v.028c0,3.229,1.524,5.072,3.867,5.072s3.839-1.857,3.839-5.072" transform="translate(-284.095 246.318)" fill="#333"/>
      <path id="Path_1115" data-name="Path 1115" d="M1414.543,306.156h2.993v2.495h.069a3.43,3.43,0,0,1,3.354-2.772,5.794,5.794,0,0,1,1.04.111v2.786a4.284,4.284,0,0,0-1.344-.166c-1.927,0-3.118,1.261-3.118,3.437v8.69h-2.993Z" transform="translate(-380.371 246.318)" fill="#333"/>
      <path id="Path_1116" data-name="Path 1116" d="M1475.84,313.5v-.014c0-4.56,2.633-7.609,6.722-7.609s6.6,2.938,6.6,7.318v1.012h-10.325c.056,2.758,1.566,4.366,3.95,4.366a3.306,3.306,0,0,0,3.326-2.01l.042-.111h2.841l-.028.152c-.471,2.314-2.716,4.421-6.25,4.421-4.282,0-6.874-2.924-6.874-7.525m3.035-1.414h7.318c-.25-2.522-1.663-3.756-3.617-3.756s-3.437,1.317-3.7,3.756" transform="translate(-432.21 246.318)" fill="#333"/>
    </g>
    <path id="Path_1117" data-name="Path 1117" d="M340.994,157.7a11.5,11.5,0,0,0-3.807,3.909,9.174,9.174,0,0,0-1.007,4.251,8.881,8.881,0,0,0,.6,3.312,10.929,10.929,0,0,0,1.69,2.851,11.551,11.551,0,0,0,3.653,2.68,24.426,24.426,0,0,1-3.073,5.923,18.537,18.537,0,0,1-3.772,4.285,5.459,5.459,0,0,1-3.226,1.263,10.052,10.052,0,0,1-3.312-.785l-.649-.239-1.058-.444a8.587,8.587,0,0,0-2.492-.341,9.546,9.546,0,0,0-3.141.615l-.819.307-1.024.41a6.733,6.733,0,0,1-2.458.478q-2.6,0-5.565-3.636a26.727,26.727,0,0,1-4.489-7.818,24.577,24.577,0,0,1-1.519-8.45,13.586,13.586,0,0,1,3.124-9.15,10.583,10.583,0,0,1,8.484-3.653,9.34,9.34,0,0,1,3.653.717l.785.307.819.341a4.963,4.963,0,0,0,1.741.444,5.189,5.189,0,0,0,1.912-.376l1.093-.41.785-.307a11.974,11.974,0,0,1,4.234-.717,10.718,10.718,0,0,1,8.842,4.233m-8.672-16.27q.068.751.068,1.161a9.107,9.107,0,0,1-1.229,4.37,9.283,9.283,0,0,1-3.209,3.5,8.038,8.038,0,0,1-4.37,1.246,10.826,10.826,0,0,1-.1-1.2,8.051,8.051,0,0,1,1.075-3.807,10.446,10.446,0,0,1,2.919-3.4,9.22,9.22,0,0,1,4.165-1.775c.137-.022.364-.057.683-.1" transform="translate(557.53 385.393)" fill="#333"/>
  </g>
</svg>
