<svg xmlns="http://www.w3.org/2000/svg" width="21.578" height="22.284" viewBox="0 0 21.578 22.284">
  <path id="Path_942" data-name="Path 942" d="M1186.431,21.887a1.435,1.435,0,0,1-.219-1.776l9.271-19.3A1.47,1.47,0,0,1,1196.774,0a1.445,1.445,0,0,1,1.293.813l4.626,9.56c.163-.045.326-.089.49-.133.508-.135,1.032-.262,1.556-.378a1.39,1.39,0,0,1,1.061.191,1.431,1.431,0,0,1,.426,1.964,1.4,1.4,0,0,1-.884.623c-.457.1-.924.214-1.389.335l3.479,7.188a1.434,1.434,0,0,1-.66,1.916,1.382,1.382,0,0,1-1.082.089,1.444,1.444,0,0,1-.842-.728l-2.181-4.549.033-.017-1.5-3.061a31.984,31.984,0,0,0-12.692,8.032,1.305,1.305,0,0,1-.595.372,1.455,1.455,0,0,1-.395.062l-.113,0A1.392,1.392,0,0,1,1186.431,21.887Zm5.159-6.416a36.565,36.565,0,0,1,8.328-4.218l-3.144-6.494C1196.444,5.442,1193.8,10.906,1191.59,15.471Z" transform="translate(-1186)" fill="#4b4b4b"/>
</svg>
