<svg xmlns="http://www.w3.org/2000/svg" width="76" height="76" viewBox="0 0 76 76">
  <g id="Group_358" data-name="Group 358" transform="translate(-543 -201)">
    <circle id="Ellipse_313" data-name="Ellipse 313" cx="38" cy="38" r="38" transform="translate(543 201)" fill="#67dda1"/>
    <path id="Path_970" data-name="Path 970" d="M1186.645,32.743a2.147,2.147,0,0,1-.328-2.657l13.869-28.87A2.2,2.2,0,0,1,1202.118,0a2.162,2.162,0,0,1,1.934,1.217l6.921,14.3q.365-.1.733-.2c.76-.2,1.545-.391,2.327-.565a2.078,2.078,0,0,1,1.587.286,2.141,2.141,0,0,1,.638,2.939,2.09,2.09,0,0,1-1.322.932c-.683.151-1.382.32-2.078.5l5.2,10.754a2.146,2.146,0,0,1-.988,2.866,2.067,2.067,0,0,1-1.618.134,2.16,2.16,0,0,1-1.259-1.089l-3.263-6.805.05-.025-2.244-4.579a47.847,47.847,0,0,0-18.987,12.016,1.953,1.953,0,0,1-.889.557,2.179,2.179,0,0,1-.59.092c-.055,0-.111,0-.169,0A2.082,2.082,0,0,1,1186.645,32.743Zm7.718-9.6a54.7,54.7,0,0,1,12.458-6.31l-4.7-9.716C1201.624,8.141,1197.671,16.315,1194.363,23.144Z" transform="translate(-621.72 222.28)" fill="#fff"/>
    <g id="Ellipse_314" data-name="Ellipse 314" transform="translate(549 207)" fill="none" stroke="#fff" stroke-width="2">
      <circle cx="32" cy="32" r="32" stroke="none"/>
      <circle cx="32" cy="32" r="31" fill="none"/>
    </g>
  </g>
</svg>
