<svg xmlns="http://www.w3.org/2000/svg" width="24.549" height="29.747" viewBox="0 0 24.549 29.747">
  <path id="Icon_material-verified-user" data-name="Icon material-verified-user" d="M16.74,1.753a3.217,3.217,0,0,0-1.218.322L5.69,6.418a1.831,1.831,0,0,0-.945.7A2.737,2.737,0,0,0,4.5,8.428v6.721c0,7.562,5.232,14.634,12.263,16.351,7.031-1.717,12.263-8.789,12.263-16.351V8.428a1.919,1.919,0,0,0-.209-1.184,2.77,2.77,0,0,0-1.072-.826L17.931,2.042A2.947,2.947,0,0,0,16.74,1.753Zm-2.585,21.39L8.7,17.693l1.921-1.921,3.529,3.515,8.979-8.979,1.921,1.935Z" transform="translate(-4.496 -1.753)" fill="#67dda1"/>
</svg>
