<svg xmlns="http://www.w3.org/2000/svg" width="34" height="34" viewBox="0 0 34 34">
  <path id="Path_13" data-name="Path 13" d="M24,34a6,6,0,0,1-6-6V24a6,6,0,0,1,6-6h4a6,6,0,0,1,6,6v4a6,6,0,0,1-6,6ZM21,24v4a3,3,0,0,0,3,3h4a3,3,0,0,0,3-3V24a3,3,0,0,0-3-3H24A3,3,0,0,0,21,24ZM6,34a6,6,0,0,1-6-6V24a6,6,0,0,1,6-6h4a6,6,0,0,1,6,6v4a6,6,0,0,1-6,6ZM3,24v4a3,3,0,0,0,3,3h4a3,3,0,0,0,3-3V24a3,3,0,0,0-3-3H6A3,3,0,0,0,3,24Zm21-8a6,6,0,0,1-6-6V6a6,6,0,0,1,6-6h4a6,6,0,0,1,6,6v4a6,6,0,0,1-6,6ZM6,16a6,6,0,0,1-6-6V6A6,6,0,0,1,6,0h4a6,6,0,0,1,6,6v4a6,6,0,0,1-6,6ZM3,6v4a3,3,0,0,0,3,3h4a3,3,0,0,0,3-3V6a3,3,0,0,0-3-3H6A3,3,0,0,0,3,6Z" fill="#4b4b4b"/>
</svg>
