<svg xmlns="http://www.w3.org/2000/svg" width="26.8" height="26.8" viewBox="0 0 26.8 26.8">
  <g id="Icon_ionic-ios-power" data-name="Icon ionic-ios-power" transform="translate(-4.1 -4.1)">
    <g id="Path_17" data-name="Path 17" transform="translate(0 -0.12)">
      <path d="M 17.5 30.82000160217285 C 10.22150039672852 30.82000160217285 4.300000190734863 24.92105102539062 4.300000190734863 17.67025184631348 C 4.300000190734863 13.83038139343262 5.999070167541504 10.19273090362549 8.961560249328613 7.69002103805542 C 9.21858024597168 7.471870899200439 9.548290252685547 7.351561069488525 9.889590263366699 7.351561069488525 C 10.30012035369873 7.351561069488525 10.69554996490479 7.53446102142334 10.97449970245361 7.85335111618042 C 11.22609996795654 8.144351005554199 11.34655952453613 8.5166015625 11.31441974639893 8.902420997619629 C 11.28312969207764 9.285780906677246 11.10406970977783 9.63270092010498 10.8102502822876 9.878941535949707 C 8.497909545898438 11.83305072784424 7.171360015869141 14.6755313873291 7.171360015869141 17.67702102661133 C 7.171360015869141 23.34787178039551 11.80780982971191 27.96144104003906 17.50676918029785 27.96144104003906 C 23.20573997497559 27.96144104003906 27.84218978881836 23.34787178039551 27.84218978881836 17.67702102661133 C 27.84218978881836 14.68219089508057 26.51555061340332 11.83963108062744 24.20241928100586 9.878201484680176 C 23.91441917419434 9.636831283569336 23.73065948486328 9.280900955200195 23.69912910461426 8.902420997619629 C 23.66757965087891 8.515801429748535 23.78804016113281 8.143661499023438 24.03829002380371 7.854220867156982 C 24.30211067199707 7.53593111038208 24.69878959655762 7.351561069488525 25.12396049499512 7.351561069488525 C 25.46525955200195 7.351561069488525 25.79496955871582 7.471870899200439 26.05233955383301 7.69032096862793 C 29.00598907470703 10.19720077514648 30.70000076293945 13.83474063873291 30.70000076293945 17.67025184631348 C 30.70000076293945 24.92105102539062 24.77849960327148 30.82000160217285 17.5 30.82000160217285 Z" stroke="none"/>
      <path d="M 9.889589309692383 7.55156135559082 C 9.598440170288086 7.55156135559082 9.314069747924805 7.65315055847168 9.090629577636719 7.842790603637695 C 6.172399520874023 10.30812072753906 4.5 13.89098167419434 4.5 17.67025184631348 C 4.5 24.80887222290039 10.32969093322754 30.6200008392334 17.5 30.6200008392334 C 24.67031097412109 30.6200008392334 30.5 24.80887222290039 30.5 17.67025184631348 C 30.5 13.89098167419434 28.82761001586914 10.30812072753906 25.92292022705078 7.842790603637695 C 25.6994800567627 7.65315055847168 25.41510963439941 7.55156135559082 25.12395858764648 7.55156135559082 C 24.76511001586914 7.55156135559082 24.41979026794434 7.707340240478516 24.18957901000977 7.985031127929688 C 23.97291946411133 8.235620498657227 23.8713493347168 8.553951263427734 23.89844131469727 8.885820388793945 C 23.9255199432373 9.210920333862305 24.08124923706055 9.515701293945312 24.3317699432373 9.72566032409668 C 26.68801879882812 11.72365188598633 28.04219055175781 14.62245178222656 28.04219055175781 17.67702102661133 C 28.04219055175781 23.46106147766113 23.3161506652832 28.16144180297852 17.50676918029785 28.16144180297852 C 11.6973991394043 28.16144180297852 6.971359252929688 23.45429229736328 6.971359252929688 17.67702102661133 C 6.971359252929688 14.61568069458008 8.325519561767578 11.71688079833984 10.68177032470703 9.72566032409668 C 10.93230056762695 9.515701293945312 11.08802032470703 9.217691421508789 11.11511039733887 8.885820388793945 C 11.14219093322754 8.560720443725586 11.04063034057617 8.235620498657227 10.82395935058594 7.985031127929688 C 10.58698081970215 7.714111328125 10.24843978881836 7.55156135559082 9.889589309692383 7.55156135559082 M 9.889589309692383 7.151561737060547 C 10.3577995300293 7.151561737060547 10.80810928344727 7.35936164855957 11.12503051757812 7.721681594848633 C 11.40871047973633 8.049760818481445 11.54984092712402 8.485540390014648 11.51372909545898 8.919021606445312 C 11.47808074951172 9.355781555175781 11.27383995056152 9.751361846923828 10.93869972229004 10.03223037719727 C 8.672060012817383 11.94773101806641 7.371360778808594 14.73453140258789 7.371360778808594 17.67702102661133 C 7.371360778808594 23.23759078979492 11.9180908203125 27.76144027709961 17.50676918029785 27.76144027709961 C 23.095458984375 27.76144027709961 27.64218902587891 23.23759078979492 27.64218902587891 17.67702102661133 C 27.64218902587891 14.74105072021484 26.34130096435547 11.95409202575684 24.07307052612305 10.03074073791504 C 23.74533081054688 9.756071090698242 23.53575134277344 9.350330352783203 23.49982070922852 8.919021606445312 C 23.46395492553711 8.479694366455078 23.60039520263672 8.056745529174805 23.88402366638184 7.726873397827148 C 24.18861961364746 7.36121940612793 24.64033126831055 7.151561737060547 25.12395858764648 7.151561737060547 C 25.51261138916016 7.151561737060547 25.88827133178711 7.288740158081055 26.1817512512207 7.537820816040039 C 29.18027114868164 10.0827808380127 30.89999961853027 13.77591133117676 30.89999961853027 17.67025184631348 C 30.89999961853027 25.03133010864258 24.88879013061523 31.02000045776367 17.5 31.02000045776367 C 10.11120986938477 31.02000045776367 4.100000381469727 25.03133010864258 4.100000381469727 17.67025184631348 C 4.100000381469727 13.77138137817383 5.824930191040039 10.07803153991699 8.832490921020508 7.5372314453125 C 9.125280380249023 7.288740158081055 9.500940322875977 7.151561737060547 9.889589309692383 7.151561737060547 Z" stroke="none" fill="#000"/>
    </g>
    <g id="Path_18" data-name="Path 18" transform="translate(-0.451)">
      <path d="M 18.01212882995605 18.91874313354492 C 17.21279907226562 18.91874313354492 16.56249809265137 18.2684440612793 16.56249809265137 17.46912384033203 L 16.56249809265137 5.749634265899658 C 16.56249809265137 4.95030403137207 17.21279907226562 4.300004005432129 18.01212882995605 4.300004005432129 C 18.81145858764648 4.300004005432129 19.46175956726074 4.95030403137207 19.46175956726074 5.749634265899658 L 19.46175956726074 17.46912384033203 C 19.46175956726074 18.2684440612793 18.81145858764648 18.91874313354492 18.01212882995605 18.91874313354492 Z" stroke="none"/>
      <path d="M 18.01212882995605 18.7187442779541 C 18.70111846923828 18.7187442779541 19.26175880432129 18.15810394287109 19.26175880432129 17.46912384033203 L 19.26175880432129 5.749634265899658 C 19.26175880432129 5.060644149780273 18.70111846923828 4.500003814697266 18.01212882995605 4.500003814697266 C 17.32314872741699 4.500003814697266 16.76249885559082 5.060644149780273 16.76249885559082 5.749634265899658 L 16.76249885559082 17.46912384033203 C 16.76249885559082 18.15810394287109 17.32314872741699 18.7187442779541 18.01212882995605 18.7187442779541 M 18.01212882995605 19.11874389648438 C 17.10251808166504 19.11874389648438 16.36249923706055 18.37872314453125 16.36249923706055 17.46912384033203 L 16.36249923706055 5.749634265899658 C 16.36249923706055 4.840023994445801 17.10251808166504 4.100004196166992 18.01212882995605 4.100004196166992 C 18.92173957824707 4.100004196166992 19.66175842285156 4.840023994445801 19.66175842285156 5.749634265899658 L 19.66175842285156 17.46912384033203 C 19.66175842285156 18.37872314453125 18.92173957824707 19.11874389648438 18.01212882995605 19.11874389648438 Z" stroke="none" fill="#000"/>
    </g>
  </g>
</svg>
