<svg xmlns="http://www.w3.org/2000/svg" width="27.402" height="33.4" viewBox="0 0 27.402 33.4">
  <path id="Path_933" data-name="Path 933" d="M-795.352,30.184a1.277,1.277,0,0,1,.251-1.08,1.264,1.264,0,0,1,.992-.475,1.262,1.262,0,0,1,1.243,1,1.868,1.868,0,0,0,.366.809l.008.008a1.4,1.4,0,0,0,1.17.411,1.365,1.365,0,0,0,1.177-.418,1.866,1.866,0,0,0,.368-.812,1.261,1.261,0,0,1,1.243-1,1.263,1.263,0,0,1,.99.477,1.272,1.272,0,0,1,.253,1.077,3.867,3.867,0,0,1-4.031,3.217A3.87,3.87,0,0,1-795.352,30.184Zm-7.762-2.722a1.872,1.872,0,0,1-1.7-1.045,1.773,1.773,0,0,1,.2-1.9,10.32,10.32,0,0,1,.814-.895c1.339-1.364,3.005-3.063,3.005-9.136,0-3.558.733-6.413,2.178-8.484a7.815,7.815,0,0,1,4.7-3.241c.342-.084.369-.174.369-.293V2.229A2.258,2.258,0,0,1-791.32,0h.05a2.258,2.258,0,0,1,2.228,2.229v.239c0,.138.037.211.371.293A7.784,7.784,0,0,1-783.977,6c1.447,2.074,2.182,4.93,2.182,8.487,0,6.082,1.669,7.781,3.01,9.145a10.29,10.29,0,0,1,.807.886,1.8,1.8,0,0,1,.191,1.909,1.844,1.844,0,0,1-1.666,1.037Zm11.442-23.144a3.188,3.188,0,0,1-1.673.926,5.215,5.215,0,0,0-3.151,2.2c-1.147,1.637-1.729,4.007-1.729,7.045a18.463,18.463,0,0,1-1.225,7.355,10.129,10.129,0,0,1-1.808,2.808.156.156,0,0,0-.029.172.168.168,0,0,0,.158.1h19.7a.136.136,0,0,0,.13-.08.141.141,0,0,0-.019-.15,10.339,10.339,0,0,1-1.848-2.847,18.463,18.463,0,0,1-1.225-7.355c0-3.038-.581-5.408-1.729-7.044a5.213,5.213,0,0,0-3.15-2.2,3.284,3.284,0,0,1-1.691-.943.456.456,0,0,0-.34-.149A.5.5,0,0,0-791.672,4.318Z" transform="translate(805)"/>
</svg>
