<svg xmlns="http://www.w3.org/2000/svg" width="25" height="25.794" viewBox="0 0 25 25.794">
  <path id="Path_975" data-name="Path 975" d="M1186.5,25.334a1.66,1.66,0,0,1-.254-2.056L1196.986.94a1.7,1.7,0,0,1,1.5-.94,1.675,1.675,0,0,1,1.5.941l5.36,11.066q.283-.078.568-.154c.589-.156,1.2-.3,1.8-.437a1.611,1.611,0,0,1,1.229.222,1.65,1.65,0,0,1-.53,2.995c-.529.117-1.07.247-1.609.388l4.03,8.321a1.659,1.659,0,0,1-.765,2.218,1.6,1.6,0,0,1-1.253.1,1.673,1.673,0,0,1-.975-.843l-2.526-5.265.038-.019-1.738-3.543a37.061,37.061,0,0,0-14.7,9.3,1.512,1.512,0,0,1-.689.431,1.687,1.687,0,0,1-.457.071c-.043,0-.086,0-.13,0A1.613,1.613,0,0,1,1186.5,25.334Zm5.977-7.427a42.378,42.378,0,0,1,9.648-4.882l-3.642-7.517C1198.1,6.3,1195.039,12.624,1192.477,17.907Z" transform="translate(-1186)" fill="#ffa32e"/>
</svg>
