<svg xmlns="http://www.w3.org/2000/svg" width="34" height="34" viewBox="0 0 34 34">
  <g id="Icon_feather-settings" data-name="Icon feather-settings" transform="translate(0 0)">
    <path id="Path_3" data-name="Path 3" d="M17.713,12A5.713,5.713,0,1,1,12,17.713,5.72,5.72,0,0,1,17.713,12Zm0,8.465a2.752,2.752,0,1,0-2.752-2.752A2.755,2.755,0,0,0,17.713,20.465Z" transform="translate(-0.713 -0.713)"/>
    <path id="Path_4" data-name="Path 4" d="M17.113,34a4.307,4.307,0,0,1-4.3-4.3v-.105a.843.843,0,0,0-.554-.762q-.044-.016-.087-.035a.847.847,0,0,0-.93.165l-.077.077a4.3,4.3,0,1,1-6.086-6.087l.077-.077a.843.843,0,0,0,.165-.93l-.006-.015a.847.847,0,0,0-.774-.514H4.3a4.3,4.3,0,0,1,0-8.6h.105a.843.843,0,0,0,.763-.554q.016-.044.035-.087a.843.843,0,0,0-.165-.93l-.077-.077a4.3,4.3,0,1,1,6.087-6.086l.077.077a.847.847,0,0,0,.93.165,1.48,1.48,0,0,1,.281-.092.847.847,0,0,0,.36-.688V4.3a4.3,4.3,0,0,1,8.6,0v.123a.847.847,0,0,0,.514.774l.015.006a.847.847,0,0,0,.93-.165l.077-.077a4.3,4.3,0,1,1,6.086,6.087l-.077.077a.843.843,0,0,0-.165.93,1.48,1.48,0,0,1,.092.281.847.847,0,0,0,.688.36H29.7a4.3,4.3,0,1,1,0,8.6h-.123a.847.847,0,0,0-.774.514l-.006.015a.843.843,0,0,0,.165.93l.077.077a4.3,4.3,0,1,1-6.087,6.086l-.077-.077a.847.847,0,0,0-.93-.165l-.015.006a.847.847,0,0,0-.514.774V29.7A4.307,4.307,0,0,1,17.113,34Zm-3.791-7.933a3.787,3.787,0,0,1,2.449,3.469q0,.017,0,.035V29.7a1.341,1.341,0,1,0,2.683,0v-.24s0,0,0-.006a3.825,3.825,0,0,1,6.494-2.717l.012.011.085.085a1.343,1.343,0,1,0,1.9-1.9l-.085-.085-.012-.012a3.827,3.827,0,0,1,2.717-6.494H29.7a1.341,1.341,0,1,0,0-2.683h-.246a3.806,3.806,0,0,1-3.485-2.308,1.48,1.48,0,0,1-.106-.383,3.788,3.788,0,0,1,.874-3.916l.011-.012.085-.085a1.343,1.343,0,1,0-1.9-1.9l-.085.085-.012.012a3.827,3.827,0,0,1-6.494-2.717s0,0,0-.006V4.3a1.341,1.341,0,1,0-2.683,0v.24s0,0,0,.006a3.806,3.806,0,0,1-2.308,3.485,1.48,1.48,0,0,1-.383.106,3.809,3.809,0,0,1-3.916-.874L9.04,7.254l-.085-.085a1.343,1.343,0,1,0-1.9,1.9l.085.085.011.012a3.79,3.79,0,0,1,.78,4.158,3.787,3.787,0,0,1-3.469,2.449H4.3a1.341,1.341,0,0,0,0,2.683h.246a3.827,3.827,0,0,1,2.717,6.494l-.011.012-.085.085a1.343,1.343,0,1,0,1.9,1.9l.085-.085.012-.011a3.808,3.808,0,0,1,4.158-.78Z" transform="translate(0 0)"/>
  </g>
</svg>
