<svg xmlns="http://www.w3.org/2000/svg" width="76" height="76" viewBox="0 0 76 76">
  <g id="Group_401" data-name="Group 401" transform="translate(-1138 -189)">
    <circle id="Ellipse_313" data-name="Ellipse 313" cx="38" cy="38" r="38" transform="translate(1138 189)" fill="#ffa32e"/>
    <path id="Path_973" data-name="Path 973" d="M5594.638,2924.965l-1.327-4.958a.809.809,0,0,1,.571-.989l4.957-1.329a.807.807,0,0,1,.988.567l.005.02a.809.809,0,0,1-.571.981l-2.983.8a19.79,19.79,0,0,0,19.856-4.231,19.716,19.716,0,0,0,.974-27.891,1,1,0,0,1,1.458-1.358,21.724,21.724,0,0,1-23.068,35.32l.709,2.648a.809.809,0,0,1-.572.989h-.008a.809.809,0,0,1-.989-.57Zm-6.987-8.045a21.73,21.73,0,0,1,22.527-35.88,1.024,1.024,0,0,1,.223.107l-.75-2.8a.823.823,0,0,1,.581-1.006l.007,0a.824.824,0,0,1,1.006.58l1.355,5.064a.821.821,0,0,1-.58,1l-5.064,1.358a.823.823,0,0,1-1-.576l-.006-.02a.824.824,0,0,1,.084-.615.812.812,0,0,1,.5-.382l3.043-.816-.03-.01a19.823,19.823,0,0,0-20.481,4.674,19.714,19.714,0,0,0,0,27.907,1,1,0,0,1-1.41,1.41Zm6.81-7.562a5.5,5.5,0,0,1-4.01-1.765,5.976,5.976,0,0,1-1.636-4.068,6.041,6.041,0,0,1,3.489-5.466,4.959,4.959,0,0,1,1.306-2.642,4.514,4.514,0,0,1,3.275-1.433,4.642,4.642,0,0,1,1.043.119,8.719,8.719,0,0,1,6.741-3.2,8.72,8.72,0,0,1,8.563,7.11,5.7,5.7,0,0,1,2.822,2.033,5.861,5.861,0,0,1,1.159,3.474,5.982,5.982,0,0,1-1.636,4.068,5.5,5.5,0,0,1-4.01,1.765Zm-.336-10.621a.939.939,0,0,1-.654.88,3.906,3.906,0,0,0-2.009,1.5,4.232,4.232,0,0,0-.771,2.41,4.082,4.082,0,0,0,1.121,2.776,3.638,3.638,0,0,0,2.649,1.179h17.106a3.636,3.636,0,0,0,2.648-1.179,4.083,4.083,0,0,0,1.122-2.776,3.883,3.883,0,0,0-3.107-3.825.944.944,0,0,1-.768-.822,6.834,6.834,0,0,0-12.415-3.146.938.938,0,0,1-1.126.333,2.735,2.735,0,0,0-1.038-.2A2.89,2.89,0,0,0,5594.125,2898.737Z" transform="translate(-4426.288 -2674.313)" fill="#fff"/>
  </g>
</svg>
