<svg xmlns="http://www.w3.org/2000/svg" width="42.717" height="31.27" viewBox="0 0 42.717 31.27">
  <path id="Path_29" data-name="Path 29" d="M15.959,31.27A9.668,9.668,0,0,1,6.3,21.613v-6.22L2.768,18.928A1.283,1.283,0,1,1,.954,17.114l5.821-5.821a1.288,1.288,0,0,1,.907-.376,1.271,1.271,0,0,1,.822.3l0,0,.016.014.017.014,0,0,.02.019,0,0,.022.021,5.821,5.821A1.283,1.283,0,1,1,12.6,18.928L9.061,15.394v6.219a6.905,6.905,0,0,0,6.9,6.9H27.915a6.719,6.719,0,0,0,4.023-1.319,7.43,7.43,0,0,0,2.574-3.553,1.38,1.38,0,0,1,2.6.913,9.743,9.743,0,0,1-9.2,6.719ZM35.37,18.762l0,0-.019-.017-.015-.013-.007-.006-.019-.018,0,0-.022-.021-5.821-5.821a1.283,1.283,0,0,1,1.814-1.814l3.534,3.534V9.657a6.906,6.906,0,0,0-6.9-6.9H15.959A6.621,6.621,0,0,0,12.1,3.982,7.627,7.627,0,0,0,9.479,7.4,1.379,1.379,0,0,1,6.917,6.381,9.7,9.7,0,0,1,15.959,0H27.915a9.668,9.668,0,0,1,9.657,9.657v4.925l3.533-3.534a1.284,1.284,0,1,1,1.815,1.815L37.1,18.684l-.022.022,0,0-.021.019,0,0-.018.016-.009.008-.013.011-.019.016,0,0a1.283,1.283,0,0,1-1.619-.021Z" transform="translate(-0.579)" fill="#4b4b4b"/>
</svg>
