<svg xmlns="http://www.w3.org/2000/svg" width="31.999" height="32" viewBox="0 0 31.999 32">
  <path id="Path_932" data-name="Path 932" d="M-3287.517-14.5a15.87,15.87,0,0,1-11.3-4.688A15.9,15.9,0,0,1-3303.5-30.5a15.9,15.9,0,0,1,4.679-11.312,15.873,15.873,0,0,1,11.3-4.688,15.921,15.921,0,0,1,11.327,4.689A15.889,15.889,0,0,1-3271.5-30.5a15.889,15.889,0,0,1-4.689,11.312A15.92,15.92,0,0,1-3287.517-14.5Zm-3.741-9.874h0l.177.589a23.63,23.63,0,0,0,3.2,6.645l.376.543.376-.543a23.63,23.63,0,0,0,3.2-6.645l.177-.589h-7.516Zm9.937,0h0l-.088.344a25.31,25.31,0,0,1-2.231,5.755l-.555,1.029,1.106-.379a13.656,13.656,0,0,0,7.373-6.061l.4-.687h-6Zm-18.359,0h0l.4.686a13.608,13.608,0,0,0,7.374,6.062l1.106.379-.555-1.029a25.322,25.322,0,0,1-2.231-5.755l-.088-.344h-6Zm18.84-9.874.062.513a27.063,27.063,0,0,1,.228,3.236,27.063,27.063,0,0,1-.228,3.236l-.062.512h6.435l.087-.346a14.092,14.092,0,0,0,.441-3.4,14.082,14.082,0,0,0-.441-3.4l-.087-.346Zm-10.908,0-.054.395a24.029,24.029,0,0,0-.268,3.354,24.9,24.9,0,0,0,.268,3.353l.054.395h8.5l.054-.395a24.963,24.963,0,0,0,.268-3.353,24.068,24.068,0,0,0-.268-3.354l-.054-.395Zm-8.846,0h0l-.086.346a14.085,14.085,0,0,0-.441,3.4,14.1,14.1,0,0,0,.441,3.4l.086.346h6.435l-.062-.512a26.927,26.927,0,0,1-.228-3.236,26.927,26.927,0,0,1,.228-3.236l.062-.513h-6.435Zm16.4-9.5h0l.555,1.029a25.31,25.31,0,0,1,2.231,5.755l.088.343h6l-.4-.687a13.661,13.661,0,0,0-7.373-6.061l-1.106-.379Zm-3.3-.651-.376.544a23.62,23.62,0,0,0-3.2,6.645l-.177.588h7.516l-.177-.588a23.62,23.62,0,0,0-3.2-6.645Zm-3.3.651h0l-1.106.379a13.608,13.608,0,0,0-7.374,6.063l-.4.685h6l.088-.343a25.322,25.322,0,0,1,2.231-5.755l.555-1.029Z" transform="translate(3303.499 46.5)" fill="#2E8EFF "/>
</svg>
