<svg xmlns="http://www.w3.org/2000/svg" width="34" height="34" viewBox="0 0 34 34">
  <path id="Path_12" data-name="Path 12" d="M8.5,34A8.51,8.51,0,0,1,0,25.5V7.5s0,0,0,0A7.508,7.508,0,0,1,7.5,0h19A7.509,7.509,0,0,1,34,7.5c0,.027,0,.053,0,.079s0,.053,0,.079V9.6a1.5,1.5,0,0,1-3,0V7.658c0-.027,0-.053,0-.079s0-.053,0-.079A4.505,4.505,0,0,0,26.5,3H7.5a4.5,4.5,0,0,0,0,9H25.811a1.512,1.512,0,0,1,.225.017A8.511,8.511,0,0,1,34,20.5v5A8.51,8.51,0,0,1,25.5,34ZM3,25.5A5.506,5.506,0,0,0,8.5,31h17A5.506,5.506,0,0,0,31,25.5v-5A5.506,5.506,0,0,0,25.5,15H7.5A7.46,7.46,0,0,1,3,13.5ZM25.52,21a1.5,1.5,0,0,1,0-3H26.5a1.5,1.5,0,1,1,0,3ZM7.5,9a1.5,1.5,0,0,1,0-3h19a1.5,1.5,0,1,1,0,3Z" fill="#fff"/>
</svg>
