<?xml version="1.0" encoding="UTF-8"?>
<svg width="162px" height="42px" viewBox="0 0 162 42" version="1.1" xmlns="http://www.w3.org/2000/svg" xmlns:xlink="http://www.w3.org/1999/xlink">
    <title>B7E094C5-E33F-49B7-92A0-9318FC4ACBDF</title>
    <g id="UI-Web" stroke="none" stroke-width="1" fill="none" fill-rule="evenodd">
        <g id="AYR_DUI_001_Home_01" transform="translate(-998.000000, -2687.000000)" fill="#333333">
            <g id="Group-37" transform="translate(0.000000, 2584.964565)">
                <g id="Group-26" transform="translate(998.203789, 102.710253)">
                    <path d="M24.0455732,19.2784643 C24.0809981,16.5245837 25.528707,13.9736651 27.8748761,12.5313187 C26.3876798,10.4072865 23.9810608,9.10615223 21.3893548,9.02506494 C18.6604991,8.73874065 16.0151683,10.6580234 14.6246592,10.6580234 C13.2071753,10.6580234 11.0662431,9.05350237 8.76086139,9.10095225 C5.73105647,9.1989395 2.96645088,10.8848728 1.49241706,13.5337787 C-1.65032508,18.9749151 0.693731561,26.9716826 3.70436153,31.3698966 C5.21057027,33.5235037 6.97076587,35.9293102 9.27419761,35.8439979 C11.528067,35.7505606 12.3699774,34.406689 15.0907081,34.406689 C17.7862513,34.406689 18.5759994,35.8439979 20.9260685,35.789723 C23.3447124,35.7503981 24.8684711,33.6265284 26.3218675,31.4524464 C27.4041148,29.9178002 28.2367627,28.2217919 28.7892613,26.4271464 C25.922281,25.214412 24.0488232,22.3913065 24.0455732,19.2784643 Z" id="Fill-3"></path>
                    <path d="M19.6067343,6.13257217 C20.924931,4.54998863 21.5750919,2.51403121 21.4177923,0.460361349 C19.4036098,0.67193582 17.5415269,1.63523341 16.2054553,3.15720461 C14.8861211,4.65853835 14.2171103,6.62494594 14.3469474,8.61946595 C16.3872923,8.6404284 18.3281875,7.72279319 19.6067343,6.13257217 Z" id="Fill-4"></path>
                    <path d="M52.537277,30.391649 L44.8455212,30.391649 L42.9983883,35.8459479 L39.7404339,35.8459479 L47.0259407,15.6667483 L50.4108073,15.6667483 L57.6963141,35.8459479 L54.3827848,35.8459479 L52.537277,30.391649 Z M45.6420942,27.8748553 L51.7390789,27.8748553 L48.7334865,19.0231774 L48.6493117,19.0231774 L45.6420942,27.8748553 Z" id="Fill-5"></path>
                    <path d="M73.4304997,28.4905663 C73.4304997,33.0624923 70.9834183,35.999835 67.2907776,35.999835 C65.3851448,36.0996098 63.5825368,35.0971498 62.6616516,33.4258414 L62.5917768,33.4258414 L62.5917768,40.7129732 L59.5718844,40.7129732 L59.5718844,21.1337222 L62.4950896,21.1337222 L62.4950896,23.580641 L62.5506644,23.580641 C63.512662,21.9194077 65.31657,20.9179227 67.2352027,20.9796726 C70.9691184,20.9798351 73.4304997,23.9314777 73.4304997,28.4905663 Z M70.3264325,28.4905663 C70.3264325,25.5119487 68.7872363,23.5536661 66.4384672,23.5536661 C64.1311355,23.5536661 62.5791018,25.5532236 62.5791018,28.4905663 C62.5791018,31.4548839 64.1311355,33.4401414 66.4384672,33.4401414 C68.7872363,33.4401414 70.3264325,31.4961588 70.3264325,28.4905663 Z" id="Fill-6"></path>
                    <path d="M89.6232592,28.4905663 C89.6232592,33.0624923 87.1763404,35.999835 83.4835371,35.999835 C81.5779044,36.0996098 79.7752964,35.0971498 78.8545737,33.4258414 L78.7846988,33.4258414 L78.7846988,40.7129732 L75.7648064,40.7129732 L75.7648064,21.1337222 L78.6878491,21.1337222 L78.6878491,23.580641 L78.7434239,23.580641 C79.7054215,21.9194077 81.5093295,20.9179227 83.4279622,20.9798351 C87.1620404,20.9798351 89.6232592,23.9314777 89.6232592,28.4905663 Z M86.5193545,28.4905663 C86.5193545,25.5119487 84.9799958,23.5536661 82.6313892,23.5536661 C80.3240575,23.5536661 78.7720239,25.5532236 78.7720239,28.4905663 C78.7720239,31.4548839 80.3240575,33.4401414 82.6313892,33.4401414 C84.9799958,33.4401414 86.5193545,31.4961588 86.5193545,28.4905663 Z" id="Fill-7"></path>
                    <path d="M100.325482,30.2234619 C100.549244,32.2246444 102.493227,33.5384537 105.149608,33.5384537 C107.695002,33.5384537 109.526372,32.2244819 109.526372,30.4202489 C109.526372,28.8539154 108.421862,27.9161302 105.806594,27.2734443 L103.191325,26.6434334 C99.4860096,25.7483856 97.7657889,24.01549 97.7657889,21.2034345 C97.7657889,17.7217182 100.799981,15.3302117 105.108333,15.3302117 C109.372322,15.3302117 112.295528,17.7217182 112.39384,21.2034345 L109.345347,21.2034345 C109.16286,19.189577 107.498215,17.9740801 105.065433,17.9740801 C102.632814,17.9740801 100.968168,19.203877 100.968168,20.9939725 C100.968168,22.4205564 102.031403,23.2600293 104.632209,23.9027152 L106.855529,24.4485514 C110.995693,25.4277739 112.715914,27.0907948 112.715914,30.0424374 C112.715914,33.8177905 109.708859,36.1821595 104.925846,36.1821595 C100.45077,36.1821595 97.4292522,33.8732028 97.2340902,30.2232994 L100.325482,30.2234619 Z" id="Fill-8"></path>
                    <path d="M119.233448,17.6520059 L119.233448,21.1337222 L122.031203,21.1337222 L122.031203,23.5252287 L119.233448,23.5252287 L119.233448,31.6359084 C119.233448,32.8959303 119.793584,33.4830413 121.023543,33.4830413 C121.355692,33.4771913 121.687192,33.4539539 122.016903,33.4131665 L122.016903,35.790373 C121.463917,35.8937228 120.901994,35.9405226 120.339582,35.9299602 C117.360965,35.9299602 116.199255,34.8111505 116.199255,31.9579826 L116.199255,23.5252287 L114.060111,23.5252287 L114.060111,21.1337222 L116.199255,21.1337222 L116.199255,17.6520059 L119.233448,17.6520059 Z" id="Fill-9"></path>
                    <path d="M123.651487,28.4905663 C123.651487,23.8616028 126.377742,20.9528601 130.629057,20.9528601 C134.894671,20.9528601 137.608414,23.8616028 137.608414,28.4905663 C137.608414,33.1323672 134.908971,36.0284349 130.629057,36.0284349 C126.350767,36.0284349 123.651487,33.1323672 123.651487,28.4905663 Z M134.531322,28.4905663 C134.531322,25.3151617 133.076138,23.4410539 130.629057,23.4410539 C128.182138,23.4410539 126.728579,25.3294617 126.728579,28.4905663 C126.728579,31.6786458 128.182138,33.5386162 130.629057,33.5386162 C133.076138,33.5386162 134.531322,31.6786458 134.531322,28.4905663 Z" id="Fill-10"></path>
                    <path d="M140.098233,21.1337222 L142.978376,21.1337222 L142.978376,23.6378409 L143.048251,23.6378409 C143.448487,22.0318574 144.933083,20.9166227 146.586679,20.9796726 C146.934428,20.9785351 147.282178,21.0163975 147.621802,21.0924473 L147.621802,23.9171777 C147.183053,23.7827905 146.724804,23.7212032 146.26493,23.7346907 C146.223818,23.7329032 146.182705,23.7320907 146.141593,23.7320907 C144.472235,23.7320907 143.098463,25.1058622 143.098463,26.7752206 C143.098463,26.8902703 143.104963,27.0051575 143.117963,27.1195572 L143.117963,35.8459479 L140.098071,35.8459479 L140.098233,21.1337222 Z" id="Fill-11"></path>
                    <path d="M161.544767,31.5247587 C161.138518,34.195602 158.538524,36.0284349 155.210533,36.0284349 C150.930293,36.0284349 148.273425,33.1608046 148.273425,28.5604411 C148.273425,23.9457776 150.944918,20.9526976 155.083783,20.9526976 C159.154398,20.9526976 161.713767,23.7488281 161.713767,28.209767 L161.713767,29.2444019 L151.321917,29.2444019 L151.321917,29.4268889 C151.312168,29.5393387 151.307293,29.6521134 151.307293,29.7648881 C151.307293,31.8669828 153.037913,33.5966285 155.139033,33.5966285 C155.186158,33.5966285 155.233283,33.595816 155.280408,33.5940285 C156.741279,33.7310157 158.129025,32.8860178 158.678274,31.5247587 L161.544767,31.5247587 Z M151.336542,27.1338572 L158.691274,27.1338572 C158.696149,27.0682073 158.697774,27.00272 158.697774,26.9370702 C158.697774,24.996175 157.100403,23.3989665 155.160158,23.3989665 C155.134158,23.3989665 155.108158,23.3992915 155.083783,23.399779 C155.075658,23.399779 155.069158,23.399779 155.061033,23.399779 C153.018413,23.399779 151.336542,25.0809998 151.336542,27.1242697 C151.336542,27.1273572 151.336542,27.1306072 151.336542,27.1338572 Z" id="Fill-12"></path>
                    <path d="M45.2636326,0.477748806 C45.3658449,0.470436324 45.4682196,0.466698833 45.5705944,0.466698833 C47.923751,0.466698833 49.8600961,2.40304399 49.8600961,4.75620061 C49.8600961,4.93657516 49.8487212,5.11662471 49.8259712,5.29553676 C49.8259712,8.39326652 48.1517379,10.1737746 45.2636326,10.1737746 L41.7612789,10.1737746 L41.7612789,0.477748806 L45.2636326,0.477748806 Z M43.2673251,8.80260299 L45.0954456,8.80260299 C45.1558954,8.80617798 45.2166703,8.80796548 45.2772826,8.80796548 C46.9495659,8.80796548 48.3256125,7.43191892 48.3256125,5.7597981 C48.3256125,5.61094847 48.314725,5.46242384 48.2929501,5.31536171 C48.3119625,5.17772456 48.3213875,5.0387874 48.3213875,4.89985025 C48.3213875,3.22301694 46.9416034,1.84323289 45.2647701,1.84323289 C45.2082203,1.84323289 45.1518329,1.84485789 45.0954456,1.84794538 L43.2673251,1.84794538 L43.2673251,8.80260299 Z" id="Fill-13"></path>
                    <path d="M51.5271795,6.51184622 C51.516617,6.40215899 51.511417,6.29198427 51.511417,6.18180955 C51.511417,4.2800768 53.0762881,2.71536821 54.9778584,2.71536821 C56.8795911,2.71536821 58.4442997,4.2800768 58.4442997,6.18180955 C58.4442997,6.29198427 58.4390997,6.40215899 58.4286997,6.51184622 C58.4394247,6.62364594 58.4449497,6.73577066 58.4449497,6.84789538 C58.4449497,8.74995313 56.8799161,10.3149867 54.9778584,10.3149867 C53.0759631,10.3149867 51.510767,8.74995313 51.510767,6.84789538 C51.510767,6.73577066 51.516292,6.62364594 51.5271795,6.51184622 Z M56.9432909,6.51184622 C56.9432909,4.92585019 56.2307302,3.9983025 54.9802958,3.9983025 C53.7249865,3.9983025 53.0189257,4.92585019 53.0189257,6.51184622 C53.0189257,8.11067972 53.725149,9.03107742 54.9802958,9.03107742 C56.2307302,9.03107742 56.9432909,8.10434224 56.9432909,6.51184622 Z" id="Fill-14"></path>
                    <polygon id="Fill-15" points="67.6026143 10.1736121 66.1045305 10.1736121 64.5921468 4.78447554 64.4779096 4.78447554 62.9720259 10.1736121 61.4882421 10.1736121 59.4712971 2.85641786 60.935906 2.85641786 62.2467902 8.4399039 62.3546899 8.4399039 63.8591111 2.85641786 65.2444202 2.85641786 66.7488414 8.4399039 66.8630786 8.4399039 68.1674629 2.85641786 69.6115968 2.85641786"></polygon>
                    <path d="M71.30793,2.85641786 L72.698114,2.85641786 L72.698114,4.01893995 L72.8060138,4.01893995 C73.1804128,3.16516709 74.0605106,2.6396434 74.9896833,2.71520571 C75.0489957,2.71081822 75.1084705,2.70854323 75.1681079,2.70854323 C76.4736296,2.70854323 77.5479144,3.78282804 77.5479144,5.08834978 C77.5479144,5.20502449 77.5394644,5.3213742 77.5222395,5.43674891 L77.522402,10.1736121 L76.0782681,10.1736121 L76.0782681,5.799448 C76.0782681,4.62343844 75.5672069,4.0387649 74.4992595,4.0387649 C74.4732596,4.03746491 74.4472597,4.03681491 74.4210972,4.03681491 C73.5003745,4.03681491 72.7426389,4.79455051 72.7426389,5.71543571 C72.7426389,5.77474806 72.7457264,5.83406041 72.7520639,5.89304777 L72.7520639,10.1736121 L71.30793,10.1736121 L71.30793,2.85641786 Z" id="Fill-16"></path>
                    <polygon id="Fill-17" points="79.8233962 10.1736121 81.2675301 10.1736121 81.2675301 0 79.8233962 0"></polygon>
                    <path d="M83.2748876,6.51184622 C83.2643251,6.40232149 83.2591251,6.29214677 83.2591251,6.18197205 C83.2591251,4.2802393 84.8241587,2.71520571 86.726054,2.71520571 C88.6279492,2.71520571 90.1928203,4.2802393 90.1928203,6.18197205 C90.1928203,6.29214677 90.1876203,6.40232149 90.1772204,6.51184622 C90.1879453,6.62348344 90.1934703,6.73544566 90.1934703,6.84757038 C90.1934703,8.74979063 88.6281117,10.3149867 86.726054,10.3149867 C84.8238337,10.3149867 83.2586376,8.74979063 83.2586376,6.84757038 C83.2586376,6.73544566 83.2640001,6.62348344 83.2748876,6.51184622 Z M88.6909991,6.51184622 C88.6909991,4.92585019 87.9784383,3.9983025 86.728004,3.9983025 C85.4726946,3.9983025 84.7666339,4.92585019 84.7666339,6.51184622 C84.7666339,8.11067972 85.4728571,9.03107742 86.728004,9.03107742 C87.9784383,9.03107742 88.6909991,8.10434224 88.6909991,6.51184622 Z" id="Fill-18"></path>
                    <path d="M91.6974041,8.10434224 C91.6974041,6.78728303 92.6780891,6.02792243 94.4189472,5.9200227 L96.4009548,5.80578549 L96.4009548,5.17414956 C96.4009548,4.4013015 95.8900561,3.96499009 94.9030335,3.96499009 C94.0968731,3.96499009 93.5381994,4.26090185 93.3779749,4.77813805 L91.9798283,4.77813805 C92.127378,3.5213662 93.309725,2.71520571 94.9696584,2.71520571 C96.8041163,2.71520571 97.8387512,3.62845343 97.8387512,5.17414956 L97.8387512,10.1737746 L96.4485672,10.1737746 L96.4485672,9.14547714 L96.33433,9.14547714 C95.8627561,9.89541276 95.0214957,10.3351367 94.136523,10.2943493 C94.0604731,10.3021492 93.9842608,10.3060492 93.9077235,10.3060492 C92.6984015,10.3060492 91.7021165,9.31366422 91.6974041,8.10434224 Z M96.4009548,7.4790438 L96.4009548,6.86739533 L94.6141093,6.98163255 C93.6064493,7.04906988 93.1493379,7.39178152 93.1493379,8.03690491 C93.1493379,8.69551576 93.7206865,9.0786898 94.5062095,9.0786898 C94.5640594,9.08453979 94.6220717,9.08746478 94.6800841,9.08746478 C95.5824443,9.08746478 96.3400174,8.37945405 96.4009548,7.4790438 Z" id="Fill-19"></path>
                    <path d="M99.7367465,6.51184622 C99.7367465,4.199802 100.925268,2.73503066 102.774026,2.73503066 C103.705962,2.69213077 104.582647,3.19360452 105.017983,4.01877745 L105.125883,4.01877745 L105.125883,0 L106.569854,0 L106.569854,10.1736121 L105.18617,10.1736121 L105.18617,9.01758996 L105.071933,9.01758996 C104.603609,9.83610041 103.716362,10.3289617 102.774026,10.2943493 C100.912594,10.2943493 99.7367465,8.82957793 99.7367465,6.51184622 Z M101.228493,6.51184622 C101.228493,8.06387984 101.960066,8.99776501 103.183525,8.99776501 C104.400647,8.99776501 105.152858,8.05039237 105.152858,6.5183462 C105.152858,4.99328752 104.392685,4.03242742 103.183525,4.03242742 C101.967866,4.03242742 101.22833,4.97265007 101.22833,6.51184622 L101.228493,6.51184622 Z" id="Fill-20"></path>
                    <path d="M112.544639,6.51184622 C112.534077,6.40215899 112.528877,6.29198427 112.528877,6.18180955 C112.528877,4.2800768 114.093748,2.71536821 115.995318,2.71536821 C117.897051,2.71536821 119.461922,4.2800768 119.461922,6.18180955 C119.461922,6.29198427 119.45656,6.40215899 119.44616,6.51184622 C119.457047,6.62364594 119.46241,6.73577066 119.46241,6.84789538 C119.46241,8.74995313 117.897376,10.3149867 115.995318,10.3149867 C114.093423,10.3149867 112.528389,8.74995313 112.528389,6.84789538 C112.528389,6.73577066 112.533752,6.62364594 112.544639,6.51184622 Z M117.960751,6.51184622 C117.960751,4.92585019 117.24819,3.9983025 115.997756,3.9983025 C114.742446,3.9983025 114.036386,4.92585019 114.036386,6.51184622 C114.036386,8.11067972 114.742609,9.03107742 115.997756,9.03107742 C117.24819,9.03107742 117.960751,8.10434224 117.960751,6.51184622 Z" id="Fill-21"></path>
                    <path d="M121.383642,2.85641786 L122.773826,2.85641786 L122.773826,4.01893995 L122.881726,4.01893995 C123.256125,3.16516709 124.136223,2.6396434 125.065396,2.71520571 C125.124708,2.71081822 125.184183,2.70854323 125.24382,2.70854323 C126.549342,2.70854323 127.623627,3.78282804 127.623627,5.08834978 C127.623627,5.20502449 127.615177,5.3213742 127.598114,5.43674891 L127.598114,10.1736121 L126.15398,10.1736121 L126.15398,5.799448 C126.15398,4.62343844 125.643082,4.0387649 124.574972,4.0387649 C124.548972,4.03746491 124.522972,4.03681491 124.496972,4.03681491 C123.576087,4.03681491 122.818351,4.79455051 122.818351,5.71543571 C122.818351,5.77474806 122.821601,5.83406041 122.827776,5.89304777 L122.827776,10.1736121 L121.383642,10.1736121 L121.383642,2.85641786 Z" id="Fill-22"></path>
                    <path d="M135.758031,1.03463491 L135.758031,2.88973028 L137.343215,2.88973028 L137.343215,4.10620223 L135.758031,4.10620223 L135.758031,7.86871783 C135.758031,8.63522841 136.073768,8.97079007 136.792666,8.97079007 C136.976616,8.97030257 137.160565,8.9590901 137.343215,8.93747766 L137.343215,10.1402996 C137.084028,10.1867745 136.821266,10.2114745 136.557692,10.214237 C134.951871,10.214237 134.312273,9.64922588 134.312273,8.2384044 L134.312273,4.10603973 L133.150725,4.10603973 L133.150725,2.88973028 L134.312273,2.88973028 L134.312273,1.03463491 L135.758031,1.03463491 Z" id="Fill-23"></path>
                    <path d="M139.315798,0 L140.747256,0 L140.747256,4.03226492 L140.861494,4.03226492 C141.253768,3.17101707 142.149303,2.64500589 143.092613,2.7215432 C143.136163,2.7191057 143.179875,2.71796821 143.223588,2.71796821 C144.545847,2.71796821 145.634107,3.80606548 145.634107,5.12848718 C145.634107,5.23589941 145.626957,5.34314914 145.612657,5.44942388 L145.612657,10.1736121 L144.16706,10.1736121 L144.16706,5.80578549 C144.16706,4.63692591 143.622687,4.04493989 142.602352,4.04493989 C142.555877,4.0412024 142.50924,4.0392524 142.462602,4.0392524 C141.524817,4.0392524 140.753269,4.81096297 140.753269,5.74874813 C140.753269,5.7992855 140.755544,5.84982288 140.759931,5.90003525 L140.759931,10.1736121 L139.315798,10.1736121 L139.315798,0 Z" id="Fill-24"></path>
                    <path d="M154.032411,8.19794201 C153.629412,9.57268857 152.287165,10.4693613 150.862044,10.3149867 C150.832794,10.3156367 150.803544,10.3161242 150.774294,10.3161242 C148.951048,10.3161242 147.451177,8.81576546 147.451177,6.99252002 C147.451177,6.8404204 147.460927,6.68864578 147.482052,6.53817115 C147.462552,6.38948403 147.452802,6.2398219 147.452802,6.08999728 C147.452802,4.2386394 148.975423,2.71504321 150.826294,2.71504321 C150.836044,2.71504321 150.845794,2.71520571 150.855544,2.71520571 C152.891664,2.71520571 154.12016,4.10620223 154.12016,6.40394649 L154.12016,6.90785773 L148.952673,6.90785773 L148.952673,6.98878253 C148.947798,7.04273239 148.946173,7.09684476 148.946173,7.15111962 C148.946173,8.21207947 149.818796,9.08518979 150.879919,9.08518979 C150.888044,9.08518979 150.894544,9.08502729 150.901044,9.08502729 C151.606292,9.16968958 152.296915,8.81820295 152.643039,8.19794201 L154.032411,8.19794201 Z M148.952673,5.8399104 L152.649539,5.8399104 C152.652789,5.79636051 152.654414,5.75281062 152.654414,5.70926073 C152.654414,4.74076315 151.856541,3.94386514 150.888044,3.94386514 C150.875044,3.94386514 150.862044,3.94402764 150.847419,3.94435264 C150.839294,3.94419014 150.832794,3.94419014 150.824669,3.94419014 C149.797671,3.94419014 148.952673,4.78886303 148.952673,5.81553546 C148.952673,5.82366044 148.952673,5.83178542 148.952673,5.8399104 Z" id="Fill-25"></path>
                </g>
            </g>
        </g>
    </g>
</svg>