<?xml version="1.0" encoding="UTF-8"?>
<svg width="100px" height="40px" viewBox="0 0 100 40" version="1.1" xmlns="http://www.w3.org/2000/svg" xmlns:xlink="http://www.w3.org/1999/xlink">
    <title>006EA2D5-43F6-41E8-B597-F9E5B3EFD018</title>
    <g id="UI-Web" stroke="none" stroke-width="1" fill="none" fill-rule="evenodd">
        <g id="AYR_DUI_001_Home_01" transform="translate(-268.000000, -24.000000)">
            <g id="Group" transform="translate(268.000000, 24.000000)">
                <path d="M21.6541302,1.45535374 C21.2481821,0.59127377 20.3158793,0.0111541987 19.3347815,0.0111541987 C18.3762739,0.0111541987 17.4882482,0.563261766 17.0165622,1.45422422 L0.310112527,35.8708118 C-0.246061299,36.9822558 0.0792393955,38.3261543 1.08202397,39.0653098 C1.50830342,39.3973876 2.05770015,39.580821 2.62855768,39.580821 C3.34715595,39.580821 3.8843539,39.3702792 4.31876587,38.9196022 C4.41500066,38.8193011 4.54105468,38.6726899 4.66439786,38.4253258 C6.27779894,35.1788701 18.3640752,10.4483366 19.3347815,8.46174334 L27.1510342,24.4412363 L27.2118022,24.411643 L29.9709846,29.9806102 L29.9102167,30.0102035 L33.8237647,38.0882782 C34.1287341,38.6979911 34.6792604,39.1696771 35.3341539,39.3820261 C35.9833999,39.5923421 36.6737603,39.5363181 37.2753406,39.2225384 C37.8963487,38.9247979 38.3610317,38.4020578 38.5839982,37.7514564 C38.8047057,37.1071803 38.7606546,36.4211121 38.460881,35.8208871 L21.6541302,1.45535374 Z" id="Fill-1" fill="#333333"></path>
                <path d="M64.3698162,0.424331261 C63.7948924,0.0493318496 63.1095019,-0.0825956541 62.4378915,0.0504613659 C61.7635703,0.185325612 61.1868393,0.574331026 60.8179392,1.1411223 L49.432189,15.547425 L38.1006556,1.14586627 C37.3332622,-0.0306379044 35.7386111,-0.355034986 34.543357,0.425460777 C33.3584944,1.24978177 33.0422298,2.83268591 33.8261141,4.03381355 L46.8559883,20.948546 L46.8559883,37.0043943 C46.8559883,38.4009283 48.0356551,39.580821 49.432189,39.580821 C50.8528946,39.580821 52.0086157,38.4246481 52.0086157,37.0043943 L52.0086157,20.948546 L65.0890922,4.03381355 L65.091803,4.02952138 C65.8727506,2.83268591 65.5562601,1.24978177 64.3698162,0.424331261" id="Fill-3" fill="#333333"></path>
                <path d="M97.740178,11.7160831 C97.5870156,10.0902574 97.2797871,8.7350637 96.8020017,7.57482455 C96.1791864,5.96526383 95.2961306,4.60645572 94.1781354,3.53725559 C92.6806226,2.04064649 90.7267854,0.959021687 88.5280689,0.409624959 C87.1166254,0.0450170974 85.9760398,0.0059358334 85.5511158,0.0059358334 L70.6503108,0.0059358334 C69.2056595,0.0059358334 68.0741101,1.13748526 68.0741101,2.58213661 L68.0741101,36.999176 C68.0741101,38.4194298 69.2296052,39.5753767 70.6503108,39.5753767 C72.0710164,39.5753767 73.2269634,38.4194298 73.2269634,36.999176 L73.2269634,5.15856329 L85.5511158,5.15856329 C85.5700916,5.15856329 87.4731007,5.17053616 89.2787455,6.20268815 C90.2704608,6.79771734 91.0175229,7.54455352 91.5626274,8.4861183 C92.2462107,9.67120681 92.6013306,11.151325 92.6478667,13.0075721 C92.6013306,14.86653 92.2462107,16.3473258 91.5626274,17.5330921 C91.0175229,18.4744309 90.2704608,19.221493 89.2801009,19.8158445 C87.4731007,20.8477706 85.5700916,20.8599694 85.5511158,20.8599694 L75.4516587,20.8599694 L78.218296,25.9775818 L78.2372718,26.0132745 L85.5511158,26.0132745 C85.9760398,26.0132745 87.1166254,25.9739674 88.5276171,25.6089077 C90.7267854,25.0599628 92.6808486,23.978338 94.1772317,22.4821807 C95.2959047,21.4125287 96.1789605,20.0541724 96.801324,18.4452894 C97.2962781,17.2443877 97.6120908,15.8503387 97.7397262,14.3076453 C97.7862622,14.0268476 97.8303134,12.6696208 97.740178,11.7160831" id="Fill-5" fill="#333333"></path>
                <path d="M36.6354471,19.45083 C36.4910949,18.7918702 36.0987009,18.2284675 35.5301024,17.8647632 C34.961278,17.5012849 34.2862791,17.3804266 33.6275452,17.5250047 C32.6877876,17.7305767 31.7482559,17.956254 30.8349291,18.1957115 C18.8902942,21.3172427 8.47140996,27.2343268 0.705533593,35.3074316 C0.237687942,35.7938013 -0.01261287,36.4326558 0.00048951909,37.1072029 C0.0133660049,37.7815241 0.288290272,38.4104388 0.774659991,38.8778326 C1.24702371,39.3328018 1.86870948,39.5833285 2.52518435,39.5833285 C3.38881251,39.5833285 3.98000134,39.3513259 4.50228968,38.8082544 C11.6577754,31.3701637 21.2046731,25.9319945 32.1112825,23.0824508 C32.98101,22.8556439 33.8554816,22.6460057 34.7098477,22.4582801 C35.3683557,22.3141538 35.9313066,21.9217599 36.2954627,21.3531614 C36.658941,20.7852406 36.7797993,20.109338 36.6354471,19.45083" id="Fill-7" fill="#0BCF9E"></path>
                <path d="M99.2942568,35.307522 C91.2905043,26.9863754 80.5165002,20.9787041 68.1374533,17.9351095 C67.2329367,17.7137243 66.3083146,17.5049897 65.3888884,17.315231 C64.7303804,17.1785595 64.0569628,17.3089057 63.4924305,17.6798388 C62.9278983,18.0509979 62.5420555,18.6195964 62.4060617,19.2801375 C62.1257158,20.6443673 63.0071903,21.9821664 64.3711942,22.2622864 C65.2129097,22.4351024 66.0749566,22.6293792 66.9329372,22.8396952 C78.3805849,25.6544498 88.3126476,31.1762032 95.6547294,38.8087966 C96.1352257,39.3082687 96.7815349,39.5834189 97.4743802,39.5834189 C98.1315328,39.5834189 98.7529926,39.3326663 99.2249045,38.8776971 C99.7115002,38.4103033 99.9864244,37.7816145 99.9995268,37.1066155 C100.012403,36.4322943 99.7621025,35.793214 99.2942568,35.307522" id="Fill-9" fill="#2EFFA8"></path>
            </g>
        </g>
    </g>
</svg>