<?xml version="1.0" encoding="UTF-8"?>
<svg height="27px" viewBox="0 0 101 41" version="1.1" xmlns="http://www.w3.org/2000/svg" xmlns:xlink="http://www.w3.org/1999/xlink">
    <title>F37F82CB-F75A-40BE-8524-C75B2F973004</title>
    <g id="UI-Web" stroke="none" stroke-width="1" fill="none" fill-rule="evenodd">
        <g id="AYR_DUI_001_Home_01" transform="translate(-269.000000, -3559.000000)">
            <g id="Footer" transform="translate(269.000000, 3340.000000)">
                <g id="Group-9" transform="translate(0.000000, 219.000000)">
                    <path d="M26.9972764,12.4352567 C26.9972764,12.0083549 27.3750479,11.6327964 27.8026136,11.6327964 L45.7630281,11.6327964 C46.1905938,11.6327964 46.5670375,12.0083549 46.5670375,12.4352567 L46.5670375,17.095103 C46.5670375,17.52289 46.1905938,17.8993337 45.7630281,17.8993337 L33.8102213,17.8993337 L33.8102213,21.1221875 L42.0266971,21.1113434 C42.4542628,21.1113434 42.8293787,21.4853527 42.8293787,21.913361 L42.8293787,26.5745352 C42.8293787,27.0023222 42.4542628,27.3778807 42.0266971,27.3778807 L33.8102213,27.3898313 L33.8102213,30.7842425 L45.9325495,30.7842425 C46.3598939,30.7842425 46.7363376,31.159137 46.7363376,31.586924 L46.7363376,36.246549 C46.7363376,36.6752213 46.3598939,37.0501158 45.9325495,37.0501158 L27.8026136,37.0501158 C27.3750479,37.0501158 26.9972764,36.6752213 26.9972764,36.246549 L26.9972764,12.4352567 Z" id="Fill-1" fill="#505050"></path>
                    <path d="M26.9972764,12.4352567 C26.9972764,12.0083549 27.3750479,11.6327964 27.8026136,11.6327964 L45.7630281,11.6327964 C46.1905938,11.6327964 46.5670375,12.0083549 46.5670375,12.4352567 L46.5670375,17.095103 C46.5670375,17.52289 46.1905938,17.8993337 45.7630281,17.8993337 L33.8102213,17.8993337 L33.8102213,21.1221875 L42.0266971,21.1113434 C42.4542628,21.1113434 42.8293787,21.4853527 42.8293787,21.913361 L42.8293787,26.5745352 C42.8293787,27.0023222 42.4542628,27.3778807 42.0266971,27.3778807 L33.8102213,27.3898313 L33.8102213,30.7842425 L45.9325495,30.7842425 C46.3598939,30.7842425 46.7363376,31.159137 46.7363376,31.586924 L46.7363376,36.246549 C46.7363376,36.6752213 46.3598939,37.0501158 45.9325495,37.0501158 L27.8026136,37.0501158 C27.3750479,37.0501158 26.9972764,36.6752213 26.9972764,36.246549 L26.9972764,12.4352567 Z" id="Fill-2" fill="#505050"></path>
                    <path d="M58.471378,41.0007165 L52.5146709,41.0007165 C51.8553965,41.0007165 51.3025709,40.4458991 51.3025709,39.786846 L51.3025709,22.2070801 L50.205108,22.2055309 C49.6325861,22.2055309 49.1678408,21.7421135 49.1678408,21.1700341 C49.1678408,21.0368071 49.1924059,20.9051293 49.2395443,20.7944756 L52.7342078,12.5596314 C52.9577281,12.0641243 53.3518764,11.6327964 53.9120052,11.6327964 L58.504574,11.6327964 C59.1638485,11.6327964 59.7180019,12.1860647 59.7180019,12.8444538 L59.683478,39.7917148 C59.683478,40.4512105 59.1306524,41.0007165 58.471378,41.0007165" id="Fill-3" fill="#505050"></path>
                    <path d="M51.3882168,4.56579071 C51.3882168,2.04377283 53.4322109,0 55.9531223,0 C58.4755828,0 60.5206835,2.04377283 60.5206835,4.56579071 C60.5206835,7.0878086 58.4755828,9.13113881 55.9531223,9.13113881 C53.4322109,9.13113881 51.3882168,7.0878086 51.3882168,4.56579071" id="Fill-4" fill="#505050"></path>
                    <path d="M63.9823721,11.6327964 L69.9381939,11.6327964 C70.5965831,11.6327964 71.1507366,12.1860647 71.1507366,12.8446751 L71.1507366,30.4246403 L72.248642,30.4246403 C72.8196148,30.4246403 73.2854667,30.8904921 73.2854667,31.4627928 C73.2854667,31.5949132 73.2609016,31.7274763 73.2137631,31.837466 L69.7177719,40.0731955 C69.4955793,40.5678173 69.101431,41.0006944 68.5417449,41.0006944 L63.9478482,41.0006944 C63.2899016,41.0006944 62.7357481,40.445877 62.7357481,39.7872665 L62.7698295,12.8400277 C62.7698295,12.1816385 63.3230977,11.6327964 63.9823721,11.6327964" id="Fill-5" fill="#505050"></path>
                    <path d="M62.4104264,4.56579071 C62.4104264,2.04377283 64.4539779,0 66.9762171,0 C69.4986776,0 71.5424505,2.04377283 71.5424505,4.56579071 C71.5424505,7.0878086 69.4986776,9.13113881 66.9762171,9.13113881 C64.4539779,9.13113881 62.4104264,7.0878086 62.4104264,4.56579071" id="Fill-6" fill="#505050"></path>
                    <path d="M92.2167562,31.7451366 L83.1475835,31.7451366 L81.2053907,36.5105465 C81.0874339,36.8267946 80.8054884,37.0500937 80.4485198,37.0500937 L75.1955699,37.0500937 C74.7365786,37.0500937 74.3638971,36.6782974 74.3638971,36.2175356 C74.3638971,36.1210457 74.3694298,36.0466864 74.4083799,35.9406802 L84.5449177,12.1176807 C84.6728333,11.8326369 84.9744752,11.6327964 85.309977,11.6327964 L90.0525923,11.6327964 C90.3892006,11.6327964 90.6901786,11.8326369 90.8167663,12.1176807 L100.954411,35.9406802 C100.993361,36.0466864 101,36.1210457 101,36.2175356 C101,36.6782974 100.627761,37.0500937 100.166999,37.0500937 L94.9155987,37.0500937 C94.5568595,37.0500937 94.2773484,36.8267946 94.1571786,36.5105465 L92.2167562,31.7451366 Z M89.6349854,25.5531799 L87.6821699,20.7859996 L85.7293543,25.5531799 L89.6349854,25.5531799 Z" id="Fill-7" fill="#505050"></path>
                    <path d="M0,24.3624803 C0,17.0342435 5.54684593,11.0095951 13.4585816,11.0095951 C18.2622776,11.0095951 21.1996893,12.6311136 23.5909146,14.9840527 C23.8748518,15.2631212 23.8943269,15.8033323 23.6336269,16.1038676 L20.2396583,20.0175543 C19.9457622,20.3559331 19.4055511,20.3873588 19.0727049,20.0866021 C17.2896321,18.4683147 15.5727301,17.562504 13.4240576,17.562504 C9.85769065,17.562504 7.21284722,20.5854288 7.21284722,24.3615951 C7.21284722,28.1393105 9.85769065,31.1612616 13.4240576,31.1612616 C15.5727301,31.1612616 17.2896321,30.2550082 19.0727049,28.6383585 C19.4055511,28.3360527 19.9457622,28.3681423 20.2396583,28.7076277 L23.6336269,32.6207832 C23.8943269,32.9215398 23.8748518,33.4599804 23.5909146,33.7392702 C21.1996893,36.0926519 18.2622776,37.7150557 13.4585816,37.7150557 C5.54684593,37.7150557 0,31.6908499 0,24.3624803" id="Fill-8" fill="#505050"></path>
                </g>
            </g>
        </g>
    </g>
</svg>