<?xml version="1.0" encoding="UTF-8"?>
<svg width="190px" height="46px" viewBox="0 0 190 46" version="1.1" xmlns="http://www.w3.org/2000/svg" xmlns:xlink="http://www.w3.org/1999/xlink">
    <title>E523AF67-2C0F-452F-BAE8-F2980DEF7E87</title>
    <defs>
        <path d="M0.872625,40.26425 L0.752375,40.148875 C0.2795,39.648375 0,38.871625 0,37.86575 L0,38.101375 L0,2.15475 L0,2.40175 C0,1.313 0.326625,0.49075 0.871,0 L21.00475,20.132125 L0.872625,40.26425 Z M-5.55111512e-16,2.153125 C-5.55111512e-16,2.06375 0.00325,1.976 0.0065,1.8915 C0.00325,1.976 -5.55111512e-16,2.06375 -5.55111512e-16,2.153125 Z" id="path-1"></path>
        <linearGradient x1="61.2949728%" y1="4.43013964%" x2="25.9613385%" y2="-63.3013157%" id="linearGradient-3">
            <stop stop-color="#00A0FF" offset="0%"></stop>
            <stop stop-color="#00E2FF" offset="100%"></stop>
        </linearGradient>
        <path d="M6.709625,13.663 L6.862375,13.57525 L14.8135,9.05775 C15.572375,8.627125 16.07775,8.1055 16.329625,7.551375 C16.07775,8.1055 15.572375,8.627125 14.8135,9.059375 L6.862375,13.576875 L6.709625,13.663 Z M6.71125,13.424125 L0,6.71125 L6.71125,0 L14.8135,4.603625 C15.84375,5.187 16.420625,5.941 16.5165,6.71125 L16.5165,6.7145 C16.420625,7.4815 15.84375,8.2355 14.8135,8.8205 L6.71125,13.424125 Z" id="path-4"></path>
        <linearGradient x1="107.59937%" y1="49.1246432%" x2="-130.466352%" y2="49.1246432%" id="linearGradient-6">
            <stop stop-color="#FFDE00" offset="0%"></stop>
            <stop stop-color="#FF9C00" offset="100%"></stop>
        </linearGradient>
        <path d="M1.545375,20.899125 C0.983125,20.899125 0.494,20.7155 0.1105,20.371 L0.1105,20.369375 C0.494,20.7155 0.98475,20.899125 1.547,20.899125 C1.59575,20.899125 1.646125,20.8975 1.6965,20.89425 C1.646125,20.8975 1.59575,20.899125 1.545375,20.899125 Z M1.547,20.6602607 C0.98475,20.661875 0.494,20.47825 0.1105,20.132125 L20.242625,0 L26.953875,6.712875 L3.367,20.115875 C2.715375,20.486375 2.09625,20.6602607 1.547,20.6602607 Z" id="path-7"></path>
        <linearGradient x1="86.7305721%" y1="30.6688998%" x2="-50.4750708%" y2="-75.7157252%" id="linearGradient-9">
            <stop stop-color="#FF3A44" offset="0%"></stop>
            <stop stop-color="#C21161" offset="100%"></stop>
        </linearGradient>
        <path d="M20.13375,20.8975 L0,0.765375 C0.3835,0.420875 0.872625,0.23725 1.434875,0.23725 C1.98575,0.23725 2.604875,0.41275 3.258125,0.784875 L26.845,14.18625 L20.13375,20.8975 Z M26.996125,14.035125 L3.258125,0.547625 C2.604875,0.1755 1.98575,0 1.434875,0 L1.428375,0 L1.4365,0 C1.987375,0 2.604875,0.1755 3.258125,0.546 L26.996125,14.0335 L26.996125,14.035125 Z" id="path-10"></path>
        <linearGradient x1="-19.3264311%" y1="-12.4138642%" x2="41.8455426%" y2="-59.7666351%" id="linearGradient-12">
            <stop stop-color="#31A06F" offset="0%"></stop>
            <stop stop-color="#00EF74" offset="100%"></stop>
        </linearGradient>
        <path d="M0.736125,0.856375 L0.888875,0.768625 L0.736125,0.856375 Z" id="path-13"></path>
        <linearGradient x1="726.04%" y1="-375.06%" x2="-1693.66%" y2="-375.06%" id="linearGradient-15">
            <stop stop-color="#CCB300" offset="0%"></stop>
            <stop stop-color="#CC7C00" offset="100%"></stop>
        </linearGradient>
        <path d="M1.55675,14.18625 C0.9945,14.18625 0.50375,14.002625 0.12025,13.6565 L0.12025,13.658125 C0.118625,13.6565 0.117,13.654875 0.115375,13.65325 L0.00975,13.550875 C0.0065,13.547625 0.00325,13.544375 0,13.541125 L0.12025,13.41925 C0.50375,13.765375 0.9945,13.949 1.55675,13.947375 C2.106,13.947375 2.725125,13.7735 3.37675,13.403 L26.963625,0 L27.11475,0.151125 L26.962,0.238875 L3.37675,13.64025 C2.782,13.976625 2.2165,14.152125 1.70625,14.181375 C1.655875,14.184625 1.6055,14.18625 1.55675,14.18625 Z" id="path-16"></path>
        <linearGradient x1="86.2519477%" y1="30.5569455%" x2="-50.139638%" y2="-40.8021905%" id="linearGradient-18">
            <stop stop-color="#CC2D36" offset="0%"></stop>
            <stop stop-color="#9C0D4D" offset="100%"></stop>
        </linearGradient>
        <path d="M1.1285625,2.51875 C0.6556875,2.019875 0.3761875,1.243125 0.3761875,0.235625 L0.3761875,0 C0.3761875,1.005875 0.6556875,1.782625 1.1285625,2.283125 L1.2488125,2.3985 L1.1285625,2.51875 Z" id="path-19"></path>
        <linearGradient x1="531.136316%" y1="-1432.53548%" x2="-167.406868%" y2="-2515.27742%" id="linearGradient-21">
            <stop stop-color="#008BDE" offset="0%"></stop>
            <stop stop-color="#00C6DE" offset="100%"></stop>
        </linearGradient>
        <polygon id="path-22" points="0.752375 0.8734375 0.752375 0.8718125 0.872625 0.7515625"></polygon>
        <linearGradient x1="1485.5%" y1="-963.14%" x2="-790.33%" y2="-3238.97%" id="linearGradient-24">
            <stop stop-color="#DE333B" offset="0%"></stop>
            <stop stop-color="#AA0D56" offset="100%"></stop>
        </linearGradient>
        <path d="M0.151125,6.86075 L0,6.709625 L8.10225,2.106 C9.1325,1.521 9.709375,0.767 9.80525,0 C9.80525,0.281125 9.7435,0.563875 9.618375,0.836875 C9.3665,1.391 8.861125,1.912625 8.10225,2.34325 L0.151125,6.86075 Z" id="path-25"></path>
        <linearGradient x1="112.800795%" y1="-0.0378967314%" x2="-288.210143%" y2="-0.0378967314%" id="linearGradient-27">
            <stop stop-color="#DEC300" offset="0%"></stop>
            <stop stop-color="#DE8900" offset="100%"></stop>
        </linearGradient>
        <path d="M9.80525,6.862375 C9.709375,6.092125 9.1325,5.338125 8.10225,4.75475 L0,0.151125 L0.151125,0 L8.10225,4.5175 C9.238125,5.162625 9.80525,6.0125 9.80525,6.862375 Z" id="path-28"></path>
        <linearGradient x1="112.800795%" y1="100.009472%" x2="-288.210143%" y2="100.009472%" id="linearGradient-30">
            <stop stop-color="#FFE73F" offset="0%"></stop>
            <stop stop-color="#FFB43F" offset="100%"></stop>
        </linearGradient>
        <path d="M1.11022302e-16,2.639 L1.11022302e-16,2.390375 C1.11022302e-16,2.301 0.00325,2.21325 0.0065,2.12875 C0.008125,2.127125 0.008125,2.1255 0.008125,2.123875 L0.008125,2.110875 C0.056875,1.24475 0.326625,0.56875 0.752375,0.117 L0.871,0.23725 C0.326625,0.728 1.11022302e-16,1.55025 1.11022302e-16,2.639 Z" id="path-31"></path>
        <linearGradient x1="479.51024%" y1="76.5825123%" x2="-156.822994%" y2="-956.82266%" id="linearGradient-33">
            <stop stop-color="#3FB8FF" offset="0%"></stop>
            <stop stop-color="#3FE8FF" offset="100%"></stop>
        </linearGradient>
        <path d="M26.963625,14.18625 L3.37675,0.784875 C2.7235,0.41275 2.104375,0.23725 1.5535,0.23725 C0.99125,0.23725 0.502125,0.420875 0.118625,0.765375 L0,0.645125 C0.037375,0.606125 0.076375,0.56875 0.115375,0.533 C0.117,0.531375 0.118625,0.52975 0.12025,0.528125 C0.5005,0.18525 0.98475,0.00325 1.5405,0 L1.5535,0 C2.104375,0 2.7235,0.1755 3.37675,0.547625 L27.11475,14.035125 L26.963625,14.18625 Z" id="path-34"></path>
        <linearGradient x1="-18.8043869%" y1="14.47517%" x2="42.099964%" y2="-17.389566%" id="linearGradient-36">
            <stop stop-color="#64B894" offset="0%"></stop>
            <stop stop-color="#3FF497" offset="100%"></stop>
        </linearGradient>
    </defs>
    <g id="UI-Web" stroke="none" stroke-width="1" fill="none" fill-rule="evenodd">
        <g id="AYR_DUI_001_Home_01" transform="translate(-746.000000, -2684.000000)">
            <g id="Group-37" transform="translate(0.000000, 2584.964565)">
                <g id="Group-59" transform="translate(746.768187, 99.993121)">
                    <path d="M61.2860625,5.65175388 C61.2860625,7.01350388 60.8830625,8.09737888 60.0754375,8.90662888 C59.1573125,9.86700388 57.9629375,10.3480039 56.4939375,10.3480039 C55.0866875,10.3480039 53.8890625,9.86050388 52.9059375,8.88550388 C51.9195625,7.90887888 51.4288125,6.69987888 51.4288125,5.25525388 C51.4288125,3.81225388 51.9195625,2.60325388 52.9059375,1.62662888 C53.8890625,0.650003881 55.0866875,0.162503881 56.4939375,0.162503881 C57.1910625,0.162503881 57.8605625,0.299003881 58.4943125,0.572003881 C59.1296875,0.845003881 59.6383125,1.20737888 60.0201875,1.66075388 L59.1621875,2.51875388 C58.5170625,1.74687888 57.6281875,1.36175388 56.4939375,1.36175388 C55.4669375,1.36175388 54.5796875,1.72250388 53.8305625,2.44400388 C53.0814375,3.16550388 52.7076875,4.10312888 52.7076875,5.25525388 C52.7076875,6.40900388 53.0814375,7.34662888 53.8305625,8.06812888 C54.5796875,8.78962888 55.4669375,9.15037888 56.4939375,9.15037888 C57.5826875,9.15037888 58.4894375,8.78800388 59.2174375,8.06162888 C59.6886875,7.58875388 59.9616875,6.93062888 60.0331875,6.08725388 L56.4939375,6.08725388 L56.4939375,4.91562888 L61.2178125,4.91562888 C61.2633125,5.17075388 61.2860625,5.41450388 61.2860625,5.65175388 Z" id="Fill-3" fill="#333333"></path>
                    <path d="M61.4485672,5.65175388 L61.1235625,5.65175388 C61.1219375,6.98262888 60.7335625,8.01450388 59.9600625,8.79125388 L59.9584375,8.79287888 L59.9584375,8.79450388 C59.0695625,9.72237888 57.9288125,10.1838789 56.4939375,10.1855039 C55.1240625,10.1838789 53.9768125,9.71750388 53.0196875,8.77012888 C52.0641875,7.82112888 51.5929375,6.66250388 51.5913125,5.25525388 C51.5929375,3.84800388 52.0641875,2.69100388 53.0196875,1.74200388 C53.9768125,0.794628881 55.1240625,0.326628881 56.4939375,0.325003881 C57.1699375,0.325003881 57.8150625,0.456628881 58.4309375,0.721503881 C59.0468125,0.986378881 59.5326875,1.33412888 59.8950625,1.76475388 L60.0201875,1.66075388 L59.9048125,1.54537888 L59.0484375,2.40337888 L59.1621875,2.51875388 L59.2873125,2.41475388 C58.6113125,1.60387888 57.6639375,1.19600388 56.4939375,1.19925388 C55.4279375,1.19762888 54.4919375,1.57787888 53.7184375,2.32700388 C52.9351875,3.07937888 52.5435625,4.06900388 52.5451875,5.25525388 C52.5435625,6.44312888 52.9351875,7.43275388 53.7184375,8.18512888 C54.4919375,8.93425388 55.4279375,9.31450388 56.4939375,9.31287888 C57.6184375,9.31450388 58.5771875,8.93262888 59.3311875,8.17700388 C59.8349375,7.67162888 60.1209375,6.97125388 60.1956875,6.10025388 L60.2119375,5.92475388 L56.6564375,5.92475388 L56.6564375,5.07812888 L61.2178125,5.07812888 L61.2178125,4.91562888 L61.0585625,4.94487888 C61.1024375,5.19025388 61.1235625,5.42425388 61.1235625,5.65175388 L61.4485672,5.65175388 C61.4485672,5.40475388 61.4258125,5.14962888 61.3770625,4.88637888 L61.3543125,4.75312888 L56.3314375,4.75312888 L56.3314375,6.24975388 L60.0331875,6.24975388 L60.0331875,6.08725388 L59.8723125,6.07262888 C59.8008125,6.89000388 59.5408125,7.50587888 59.1020625,7.94625388 C58.4033125,8.64175388 57.5469375,8.98625388 56.4939375,8.98787888 C55.5043125,8.98625388 54.6674375,8.64662888 53.9443125,7.95112888 C53.2276875,7.25887888 52.8718125,6.37487888 52.8701875,5.25525388 C52.8718125,4.13725388 53.2276875,3.25325388 53.9443125,2.56100388 C54.6674375,1.86550388 55.5043125,1.52587888 56.4939375,1.52425388 C57.5924375,1.52587888 58.4211875,1.88987888 59.0386875,2.62275388 L59.1524375,2.75925388 L60.1339375,1.77612888 L60.2395625,1.67050388 L60.1436875,1.55675388 C59.7439375,1.08062888 59.2125625,0.703628881 58.5593125,0.422503881 C57.9044375,0.141378881 57.2121875,0 56.4939375,0 C55.0476875,-0.00162111857 53.8013125,0.507003881 52.7905625,1.51125388 C51.7765625,2.51387888 51.2646875,3.77487888 51.2663086,5.25525388 C51.2646875,6.73562888 51.7765625,7.99662888 52.7905625,9.00087888 C53.8013125,10.0051289 55.0493125,10.5121289 56.4939375,10.5105078 C57.9970625,10.5121289 59.2466875,10.0132539 60.1924375,9.01875388 L60.0754375,8.90662888 L60.1908125,9.02037888 C61.0325625,8.18025388 61.4501875,7.04275388 61.4485672,5.65175388 Z" id="Fill-4" fill="#333333"></path>
                    <polygon id="Fill-5" fill="#333333" points="68.7756875 1.57950388 64.3361875 1.57950388 64.3361875 4.67025388 68.3401875 4.67025388 68.3401875 5.84187888 64.3361875 5.84187888 64.3361875 8.93262888 68.7756875 8.93262888 68.7756875 10.1302539 63.0833125 10.1302539 63.0833125 0.380253881 68.7756875 0.380253881"></polygon>
                    <polygon id="Fill-6" fill="#333333" points="68.7756875 1.57950388 68.7756875 1.41700388 64.1736875 1.41700388 64.1736875 4.83275388 68.1776875 4.83275388 68.1776875 5.67937888 64.1736875 5.67937888 64.1736875 9.09512888 68.6131875 9.09512888 68.6131875 9.96775388 63.2458125 9.96775388 63.2458125 0.542753881 68.6131875 0.542753881 68.6131875 1.57950388 68.7756875 1.57950388 68.7756875 1.41700388 68.7756875 1.57950388 68.9381875 1.57950388 68.9381875 0.217753881 62.9208125 0.217753881 62.9208125 10.2927539 68.9381875 10.2927539 68.9381875 8.77012888 64.4986875 8.77012888 64.4986875 6.00437888 68.5026875 6.00437888 68.5026875 4.50775388 64.4986875 4.50775388 64.4986875 1.74200388 68.9381875 1.74200388 68.9381875 1.57950388"></polygon>
                    <polygon id="Fill-7" fill="#333333" points="74.0585625 10.1302539 72.8056875 10.1302539 72.8056875 1.57950388 70.0821875 1.57950388 70.0821875 0.380253881 76.7820625 0.380253881 76.7820625 1.57950388 74.0585625 1.57950388"></polygon>
                    <polygon id="Fill-8" fill="#333333" points="74.0585625 10.1302539 74.0585625 9.96775388 72.9681875 9.96775388 72.9681875 1.41700388 70.2446875 1.41700388 70.2446875 0.542753881 76.6195625 0.542753881 76.6195625 1.41700388 73.8960625 1.41700388 73.8960625 10.1302539 74.0585625 10.1302539 74.0585625 9.96775388 74.0585625 10.1302539 74.2210625 10.1302539 74.2210625 1.74200388 76.9445625 1.74200388 76.9445625 0.217753881 69.9196875 0.217753881 69.9196875 1.74200388 72.6431875 1.74200388 72.6431875 10.2927539 74.2210625 10.2927539 74.2210625 10.1302539"></polygon>
                    <polygon id="Fill-9" fill="#333333" points="81.6310625 10.1302539 82.8823125 10.1302539 82.8823125 0.380253881 81.6310625 0.380253881"></polygon>
                    <polygon id="Fill-10" fill="#333333" points="81.6310625 10.1302539 81.7935625 10.1302539 81.7935625 0.542753881 82.7198125 0.542753881 82.7198125 9.96775388 81.6310625 9.96775388 81.6310625 10.1302539 81.7935625 10.1302539 81.6310625 10.1302539 81.6310625 10.2927539 83.0448125 10.2927539 83.0448125 0.217753881 81.4685625 0.217753881 81.4685625 10.2927539 81.6310625 10.2927539"></polygon>
                    <polygon id="Fill-11" fill="#333333" points="88.4398125 10.1302539 87.1853125 10.1302539 87.1853125 1.57950388 84.4634375 1.57950388 84.4634375 0.380253881 91.1633125 0.380253881 91.1633125 1.57950388 88.4398125 1.57950388"></polygon>
                    <polygon id="Fill-12" fill="#333333" points="88.4398125 10.1302539 88.4398125 9.96775388 87.3478125 9.96775388 87.3478125 1.41700388 84.6259375 1.41700388 84.6259375 0.542753881 91.0008125 0.542753881 91.0008125 1.41700388 88.2773125 1.41700388 88.2773125 10.1302539 88.4398125 10.1302539 88.4398125 9.96775388 88.4398125 10.1302539 88.6023125 10.1302539 88.6023125 1.74200388 91.3258125 1.74200388 91.3258125 0.217753881 84.3009375 0.217753881 84.3009375 1.74200388 87.0228125 1.74200388 87.0228125 10.2927539 88.6023125 10.2927539 88.6023125 10.1302539"></polygon>
                    <path d="M97.6226875,8.05512888 C98.3441875,8.78475388 99.2265625,9.15037888 100.271438,9.15037888 C101.314688,9.15037888 102.198688,8.78475388 102.920188,8.05512888 C103.641688,7.32387888 104.004063,6.39112888 104.004063,5.25525388 C104.004063,4.12100388 103.641688,3.18825388 102.920188,2.45700388 C102.198688,1.72737888 101.314688,1.36175388 100.271438,1.36175388 C99.2265625,1.36175388 98.3441875,1.72737888 97.6226875,2.45700388 C96.9011875,3.18825388 96.5404375,4.12100388 96.5404375,5.25525388 C96.5404375,6.39112888 96.9011875,7.32387888 97.6226875,8.05512888 Z M103.846438,8.87087888 C102.887688,9.85725388 101.696563,10.3480039 100.271438,10.3480039 C98.8463125,10.3480039 97.6535625,9.85725388 96.6980625,8.87087888 C95.7393125,7.88612888 95.2615625,6.68037888 95.2615625,5.25525388 C95.2615625,3.83012888 95.7393125,2.62600388 96.6980625,1.64125388 C97.6535625,0.654878881 98.8463125,0.162503881 100.271438,0.162503881 C101.688438,0.162503881 102.876313,0.658128881 103.839938,1.64775388 C104.801938,2.63737888 105.282938,3.83987888 105.282938,5.25525388 C105.282938,6.68037888 104.803563,7.88612888 103.846438,8.87087888 Z" id="Fill-13" fill="#333333"></path>
                    <path d="M97.6226875,8.05512888 L97.5073125,8.16887888 C98.2548125,8.92937888 99.1891875,9.31450388 100.271438,9.312884 C101.353688,9.31450388 102.288063,8.92937888 103.035563,8.16887888 C103.787938,7.40837888 104.168188,6.42525388 104.166568,5.25525388 C104.168188,4.08687888 103.787938,3.10375388 103.035563,2.34325388 C102.288063,1.58275388 101.353688,1.19762888 100.271438,1.19924876 C99.1891875,1.19762888 98.2548125,1.58275388 97.5073125,2.34325388 C96.7549375,3.10375388 96.3763125,4.08687888 96.3779323,5.25525388 C96.3763125,6.42525388 96.7549375,7.40837888 97.5073125,8.16887888 L97.6226875,8.05512888 L97.7380625,7.93975388 C97.0490625,7.23937888 96.7045625,6.35700388 96.7029375,5.25525388 C96.7045625,4.15512888 97.0490625,3.27275388 97.7380625,2.57075388 L97.7380625,2.57237888 C98.4335625,1.87037888 99.2639375,1.52587888 100.271438,1.52425388 C101.277313,1.52587888 102.109313,1.87037888 102.803188,2.57075388 L102.803188,2.57237888 C103.495438,3.27275388 103.839938,4.15512888 103.841563,5.25525388 C103.839938,6.35700388 103.495438,7.23937888 102.803188,7.93975388 C102.109313,8.64175388 101.277313,8.98625388 100.271438,8.98787888 C99.2639375,8.98625388 98.4335625,8.64175388 97.7380625,7.93975388 L97.6226875,8.05512888 Z M103.963438,8.98462888 L103.729438,8.75712888 C102.798313,9.71262888 101.659188,10.1838789 100.271438,10.1855039 C98.8836875,10.1838789 97.7429375,9.71262888 96.8134375,8.75712888 L96.8085625,8.75387888 L96.8134375,8.75712888 C95.8839375,7.80000388 95.4256875,6.64462888 95.4240625,5.25525388 C95.4256875,3.86750388 95.8839375,2.71212888 96.8134375,1.75500388 C97.7429375,0.799503881 98.8836875,0.326628881 100.271438,0.325003881 C101.651063,0.326628881 102.786938,0.801128881 103.722938,1.76150388 C104.657313,2.72350388 105.118813,3.87562888 105.120438,5.25525388 C105.118813,6.64462888 104.657313,7.80000388 103.729438,8.75712888 L103.963438,8.98462888 C104.948188,7.97225388 105.447063,6.71775388 105.445441,5.25525388 C105.447063,3.80250388 104.946563,2.55125388 103.956938,1.53400388 C102.965688,0.515128881 101.725813,-0.00162111857 100.271438,3.67403983e-08 C98.8089375,-0.00162111857 97.5641875,0.511878881 96.5810625,1.52750388 C95.5930625,2.53987888 95.0974375,3.79437888 95.0990585,5.25525388 C95.0974375,6.71775388 95.5930625,7.97225388 96.5810625,8.98462888 L96.5859375,8.98950388 L96.5810625,8.98462888 C97.5641875,10.0002539 98.8089375,10.5121289 100.271438,10.5105077 C101.733938,10.5121289 102.977063,10.0002539 103.963438,8.98462888 Z" id="Fill-14" fill="#333333"></path>
                    <polygon id="Fill-15" fill="#333333" points="107.041188 10.1302539 107.041188 0.380253881 108.565438 0.380253881 113.303938 7.96575388 113.357563 7.96575388 113.303938 6.08725388 113.303938 0.380253881 114.558438 0.380253881 114.558438 10.1302539 113.250313 10.1302539 108.292438 2.17912888 108.238813 2.17912888 108.292438 4.05762888 108.292438 10.1302539"></polygon>
                    <polygon id="Fill-16" fill="#333333" points="107.041188 10.1302539 107.203688 10.1302539 107.203688 0.542753881 108.476063 0.542753881 113.214563 8.12825388 113.524938 8.12825388 113.466438 6.08400388 113.466438 0.542753881 114.395938 0.542753881 114.395938 9.96775388 113.341313 9.96775388 108.383438 2.01662888 108.071438 2.01662888 108.129938 4.06087888 108.129938 9.96775388 107.041188 9.96775388 107.041188 10.1302539 107.203688 10.1302539 107.041188 10.1302539 107.041188 10.2927539 108.454938 10.2927539 108.454938 4.05600388 108.401313 2.17425388 108.238813 2.17912888 108.238813 2.34162888 108.292438 2.34162888 108.292438 2.17912888 108.154313 2.26525388 113.160938 10.2927539 114.720938 10.2927539 114.720938 0.217753881 113.141438 0.217753881 113.141438 6.08887888 113.195063 7.97062888 113.357563 7.96575388 113.357563 7.80325388 113.303938 7.80325388 113.303938 7.96575388 113.442063 7.87962888 108.656438 0.217753881 106.878688 0.217753881 106.878688 10.2927539 107.041188 10.2927539"></polygon>
                    <path d="M158.002812,37.7568789 L161.035062,37.7568789 L161.035062,17.4411289 L158.002812,17.4411289 L158.002812,37.7568789 Z M185.314188,24.7585039 L181.838312,33.5660039 L181.734312,33.5660039 L178.126812,24.7585039 L174.860562,24.7585039 L180.270187,37.0695039 L177.185937,43.9156289 L180.349812,43.9156289 L188.686062,24.7585039 L185.314188,24.7585039 Z M168.118437,35.4477539 C167.123937,35.4477539 165.739437,34.9521289 165.739437,33.7236289 C165.739437,32.1555039 167.465187,31.5542539 168.953687,31.5542539 C170.287812,31.5542539 170.913437,31.8418789 171.724312,32.2335039 C171.488687,34.1152539 169.868562,35.4477539 168.118437,35.4477539 Z M168.484062,24.3148789 C166.288687,24.3148789 164.015312,25.2817539 163.074437,27.4251289 L165.765437,28.5496289 C166.340687,27.4251289 167.411562,27.0595039 168.536062,27.0595039 C170.104187,27.0595039 171.698312,28.0003789 171.724312,29.6725039 L171.724312,29.8821289 C171.175062,29.5685039 170.000187,29.0972539 168.562062,29.0972539 C165.661437,29.0972539 162.707187,30.6913789 162.707187,33.6716289 C162.707187,36.3886289 165.086187,38.1403789 167.751187,38.1403789 C169.790562,38.1403789 170.913437,37.2255039 171.620312,36.1546289 L171.724312,36.1546289 L171.724312,37.7227539 L174.650937,37.7227539 L174.650937,29.9341289 C174.650937,26.3266289 171.959937,24.3148789 168.484062,24.3148789 Z M149.744562,27.2317539 L145.431812,27.2317539 L145.431812,20.2686289 L149.744562,20.2686289 C152.011437,20.2686289 153.298437,22.1455039 153.298437,23.7510039 C153.298437,25.3256289 152.011437,27.2317539 149.744562,27.2317539 Z M149.666562,17.4411289 L142.401187,17.4411289 L142.401187,37.7568789 L145.431812,37.7568789 L145.431812,30.0592539 L149.666562,30.0592539 C153.027062,30.0592539 156.330687,27.6266289 156.330687,23.7510039 C156.330687,19.8737539 153.027062,17.4411289 149.666562,17.4411289 Z M110.045812,35.4526289 C107.952812,35.4526289 106.197812,33.6976289 106.197812,31.2893789 C106.197812,28.8551289 107.952812,27.0757539 110.045812,27.0757539 C112.114437,27.0757539 113.737812,28.8551289 113.737812,31.2893789 C113.737812,33.6976289 112.114437,35.4526289 110.045812,35.4526289 Z M113.528187,25.8976289 L113.424187,25.8976289 C112.743312,25.0851289 111.433562,24.3522539 109.784187,24.3522539 C106.329437,24.3522539 103.160687,27.3893789 103.160687,31.2893789 C103.160687,35.1650039 106.329437,38.1745039 109.784187,38.1745039 C111.433562,38.1745039 112.743312,37.4416289 113.424187,36.6047539 L113.528187,36.6047539 L113.528187,37.5992539 C113.528187,40.2431289 112.114437,41.6568789 109.836187,41.6568789 C107.978812,41.6568789 106.826687,40.3211289 106.355437,39.1966289 L103.711562,40.2951289 C104.470437,42.1281289 106.485437,44.3803789 109.836187,44.3803789 C113.398187,44.3803789 116.407687,42.2857539 116.407687,37.1800039 L116.407687,24.7715039 L113.528187,24.7715039 L113.528187,25.8976289 Z M118.502312,37.7568789 L121.539437,37.7568789 L121.539437,17.4411289 L118.502312,17.4411289 L118.502312,37.7568789 Z M126.016312,31.0537539 C125.936687,28.3838789 128.084937,27.0221289 129.628687,27.0221289 C130.834437,27.0221289 131.854937,27.6250039 132.194562,28.4895039 L126.016312,31.0537539 Z M135.441312,28.7511289 C134.866062,27.2057539 133.111062,24.3522539 129.524687,24.3522539 C125.964312,24.3522539 123.005187,27.1537539 123.005187,31.2633789 C123.005187,35.1390039 125.936687,38.1745039 129.864312,38.1745039 C133.033062,38.1745039 134.866062,36.2375039 135.624937,35.1113789 L133.268687,33.5416289 C132.483812,34.6937539 131.409687,35.4526289 129.864312,35.4526289 C128.318937,35.4526289 127.220437,34.7457539 126.513562,33.3580039 L135.754937,29.5360039 L135.441312,28.7511289 Z M61.8141875,26.4728789 L61.8141875,29.4043789 L68.8309375,29.4043789 C68.6213125,31.0537539 68.0720625,32.2578789 67.2335625,33.0963789 C66.2130625,34.1168789 64.6156875,35.2430039 61.8141875,35.2430039 C57.4949375,35.2430039 54.1181875,31.7606289 54.1181875,27.4413789 C54.1181875,23.1221289 57.4949375,19.6397539 61.8141875,19.6397539 C64.1444375,19.6397539 65.8458125,20.5562539 67.1035625,21.7343789 L69.1705625,19.6657539 C67.4171875,17.9903789 65.0869375,16.7082539 61.8141875,16.7082539 C55.8975625,16.7082539 50.9234375,21.5247539 50.9234375,27.4413789 C50.9234375,33.3580039 55.8975625,38.1745039 61.8141875,38.1745039 C65.0089375,38.1745039 67.4171875,37.1280039 69.3021875,35.1650039 C71.2391875,33.2263789 71.8420625,30.5045039 71.8420625,28.3058789 C71.8420625,27.6250039 71.7884375,26.9961289 71.6844375,26.4728789 L61.8141875,26.4728789 Z M79.8175625,35.4526289 C77.7229375,35.4526289 75.9175625,33.7252539 75.9175625,31.2633789 C75.9175625,28.7771289 77.7229375,27.0757539 79.8175625,27.0757539 C81.9121875,27.0757539 83.7175625,28.7771289 83.7175625,31.2633789 C83.7175625,33.7252539 81.9121875,35.4526289 79.8175625,35.4526289 Z M79.8175625,24.3522539 C75.9955625,24.3522539 72.8804375,27.2577539 72.8804375,31.2633789 C72.8804375,35.2430039 75.9955625,38.1745039 79.8175625,38.1745039 C83.6395625,38.1745039 86.7546875,35.2430039 86.7546875,31.2633789 C86.7546875,27.2577539 83.6395625,24.3522539 79.8175625,24.3522539 Z M94.9511875,35.4526289 C92.8581875,35.4526289 91.0511875,33.7252539 91.0511875,31.2633789 C91.0511875,28.7771289 92.8581875,27.0757539 94.9511875,27.0757539 C97.0458125,27.0757539 98.8528125,28.7771289 98.8528125,31.2633789 C98.8528125,33.7252539 97.0458125,35.4526289 94.9511875,35.4526289 Z M94.9511875,24.3522539 C91.1291875,24.3522539 88.0140625,27.2577539 88.0140625,31.2633789 C88.0140625,35.2430039 91.1291875,38.1745039 94.9511875,38.1745039 C98.7748125,38.1745039 101.889937,35.2430039 101.889937,31.2633789 C101.889937,27.2577539 98.7748125,24.3522539 94.9511875,24.3522539 Z" id="Fill-17" fill="#333333"></path>
                    <g id="Group-20" transform="translate(0.436312, 1.374754)">
                        <mask id="mask-2" fill="white">
                            <use xlink:href="#path-1"></use>
                        </mask>
                        <g id="Clip-19"></g>
                        <path d="M0.872625,40.26425 L0.752375,40.148875 C0.2795,39.648375 0,38.871625 0,37.86575 L0,38.101375 L0,2.15475 L0,2.40175 C0,1.313 0.326625,0.49075 0.871,0 L21.00475,20.132125 L0.872625,40.26425 Z M-5.55111512e-16,2.153125 C-5.55111512e-16,2.06375 0.00325,1.976 0.0065,1.8915 C0.00325,1.976 -5.55111512e-16,2.06375 -5.55111512e-16,2.153125 Z" id="Fill-18" fill="url(#linearGradient-3)" mask="url(#mask-2)"></path>
                    </g>
                    <g id="Group-23" transform="translate(21.441063, 14.795629)">
                        <mask id="mask-5" fill="white">
                            <use xlink:href="#path-4"></use>
                        </mask>
                        <g id="Clip-22"></g>
                        <path d="M6.709625,13.663 L6.862375,13.57525 L14.8135,9.05775 C15.572375,8.627125 16.07775,8.1055 16.329625,7.551375 C16.07775,8.1055 15.572375,8.627125 14.8135,9.059375 L6.862375,13.576875 L6.709625,13.663 Z M6.71125,13.424125 L0,6.71125 L6.71125,0 L14.8135,4.603625 C15.84375,5.187 16.420625,5.941 16.5165,6.71125 L16.5165,6.7145 C16.420625,7.4815 15.84375,8.2355 14.8135,8.8205 L6.71125,13.424125 Z" id="Fill-21" fill="url(#linearGradient-6)" mask="url(#mask-5)"></path>
                    </g>
                    <g id="Group-26" transform="translate(1.198438, 21.506879)">
                        <mask id="mask-8" fill="white">
                            <use xlink:href="#path-7"></use>
                        </mask>
                        <g id="Clip-25"></g>
                        <path d="M1.545375,20.899125 C0.983125,20.899125 0.494,20.7155 0.1105,20.371 L0.1105,20.369375 C0.494,20.7155 0.98475,20.899125 1.547,20.899125 C1.59575,20.899125 1.646125,20.8975 1.6965,20.89425 C1.646125,20.8975 1.59575,20.899125 1.545375,20.899125 Z M1.547,20.6602607 C0.98475,20.661875 0.494,20.47825 0.1105,20.132125 L20.242625,0 L26.953875,6.712875 L3.367,20.115875 C2.715375,20.486375 2.09625,20.6602607 1.547,20.6602607 Z" id="Fill-24" fill="url(#linearGradient-9)" mask="url(#mask-8)"></path>
                    </g>
                    <g id="Group-29" transform="translate(1.307313, 0.609379)">
                        <mask id="mask-11" fill="white">
                            <use xlink:href="#path-10"></use>
                        </mask>
                        <g id="Clip-28"></g>
                        <path d="M20.13375,20.8975 L0,0.765375 C0.3835,0.420875 0.872625,0.23725 1.434875,0.23725 C1.98575,0.23725 2.604875,0.41275 3.258125,0.784875 L26.845,14.18625 L20.13375,20.8975 Z M26.996125,14.035125 L3.258125,0.547625 C2.604875,0.1755 1.98575,0 1.434875,0 L1.428375,0 L1.4365,0 C1.987375,0 2.604875,0.1755 3.258125,0.546 L26.996125,14.0335 L26.996125,14.035125 Z" id="Fill-27" fill="url(#linearGradient-12)" mask="url(#mask-11)"></path>
                    </g>
                    <path d="M2.8949375,42.4011289 C3.4051875,42.3718789 3.9706875,42.1963789 4.5654375,41.8600039 L28.1506875,28.4586289 L4.5654375,41.8600039 C3.9706875,42.1980039 3.4051875,42.3735039 2.8949375,42.4011289 Z" id="Fill-30" fill="#000000"></path>
                    <g id="Group-33" transform="translate(27.414562, 27.602254)">
                        <mask id="mask-14" fill="white">
                            <use xlink:href="#path-13"></use>
                        </mask>
                        <g id="Clip-32"></g>
                        <path d="M0.736125,0.856375 L0.888875,0.768625 L0.736125,0.856375 Z" id="Fill-31" fill="url(#linearGradient-15)" mask="url(#mask-14)"></path>
                    </g>
                    <g id="Group-36" transform="translate(1.188688, 28.219754)">
                        <mask id="mask-17" fill="white">
                            <use xlink:href="#path-16"></use>
                        </mask>
                        <g id="Clip-35"></g>
                        <path d="M1.55675,14.18625 C0.9945,14.18625 0.50375,14.002625 0.12025,13.6565 L0.12025,13.658125 C0.118625,13.6565 0.117,13.654875 0.115375,13.65325 L0.00975,13.550875 C0.0065,13.547625 0.00325,13.544375 0,13.541125 L0.12025,13.41925 C0.50375,13.765375 0.9945,13.949 1.55675,13.947375 C2.106,13.947375 2.725125,13.7735 3.37675,13.403 L26.963625,0 L27.11475,0.151125 L26.962,0.238875 L3.37675,13.64025 C2.782,13.976625 2.2165,14.152125 1.70625,14.181375 C1.655875,14.184625 1.6055,14.18625 1.55675,14.18625 Z" id="Fill-34" fill="url(#linearGradient-18)" mask="url(#mask-17)"></path>
                    </g>
                    <path d="M1.1886875,41.7608789 C0.7158125,41.2603789 0.4363125,40.4836289 0.4363125,39.4777539 L0.4363125,39.4761289 C0.4363125,40.4836289 0.7158125,41.2603789 1.1886875,41.7592539 L1.1886875,41.7608789 Z" id="Fill-37" fill="#000000"></path>
                    <g id="Group-40" transform="translate(0.060125, 39.240504)">
                        <mask id="mask-20" fill="white">
                            <use xlink:href="#path-19"></use>
                        </mask>
                        <g id="Clip-39"></g>
                        <path d="M1.1285625,2.51875 C0.6556875,2.019875 0.3761875,1.243125 0.3761875,0.235625 L0.3761875,0 C0.3761875,1.005875 0.6556875,1.782625 1.1285625,2.283125 L1.2488125,2.3985 L1.1285625,2.51875 Z" id="Fill-38" fill="url(#linearGradient-21)" mask="url(#mask-20)"></path>
                    </g>
                    <g id="Group-43" transform="translate(0.436312, 40.887441)">
                        <mask id="mask-23" fill="white">
                            <use xlink:href="#path-22"></use>
                        </mask>
                        <g id="Clip-42"></g>
                        <polygon id="Fill-41" fill="url(#linearGradient-24)" mask="url(#mask-23)" points="0.752375 0.8734375 0.752375 0.8718125 0.872625 0.7515625"></polygon>
                    </g>
                    <path d="M37.7706875,22.3470039 C37.8958125,22.0740039 37.9575625,21.7912539 37.9575625,21.5101289 C37.9575625,21.5085039 37.9591875,21.5085039 37.9591875,21.5085039 C37.9591875,21.7912539 37.8958125,22.0723789 37.7706875,22.3470039 Z" id="Fill-44" fill="#000000"></path>
                    <g id="Group-47" transform="translate(28.152313, 21.510129)">
                        <mask id="mask-26" fill="white">
                            <use xlink:href="#path-25"></use>
                        </mask>
                        <g id="Clip-46"></g>
                        <path d="M0.151125,6.86075 L0,6.709625 L8.10225,2.106 C9.1325,1.521 9.709375,0.767 9.80525,0 C9.80525,0.281125 9.7435,0.563875 9.618375,0.836875 C9.3665,1.391 8.861125,1.912625 8.10225,2.34325 L0.151125,6.86075 Z" id="Fill-45" fill="url(#linearGradient-27)" mask="url(#mask-26)"></path>
                    </g>
                    <path d="M37.9591875,21.5068789 L37.9575625,21.5068789 C37.9575625,20.6570039 37.3904375,19.8071289 36.2545625,19.1620039 L28.3034375,14.6445039 L28.3034375,14.6428789 L36.2545625,19.1620039 C37.3904375,19.8071289 37.9591875,20.6570039 37.9591875,21.5068789 Z" id="Fill-48" fill="#404040"></path>
                    <g id="Group-51" transform="translate(28.152313, 14.644504)">
                        <mask id="mask-29" fill="white">
                            <use xlink:href="#path-28"></use>
                        </mask>
                        <g id="Clip-50"></g>
                        <path d="M9.80525,6.862375 C9.709375,6.092125 9.1325,5.338125 8.10225,4.75475 L0,0.151125 L0.151125,0 L8.10225,4.5175 C9.238125,5.162625 9.80525,6.0125 9.80525,6.862375 Z" id="Fill-49" fill="url(#linearGradient-30)" mask="url(#mask-29)"></path>
                    </g>
                    <path d="M0.4444375,3.24837888 C0.5386875,1.57950388 1.4454375,0.615878881 2.7291875,0.609378881 C2.1734375,0.612628881 1.6891875,0.794628881 1.3089375,1.13750388 L1.3040625,1.14237888 C1.2650625,1.17812888 1.2260625,1.21550388 1.1886875,1.25450388 C0.7629375,1.70625388 0.4931875,2.38225388 0.4444375,3.24837888 Z" id="Fill-52" fill="#404040"></path>
                    <g id="Group-55" transform="translate(0.436312, 1.137504)">
                        <mask id="mask-32" fill="white">
                            <use xlink:href="#path-31"></use>
                        </mask>
                        <g id="Clip-54"></g>
                        <path d="M1.11022302e-16,2.639 L1.11022302e-16,2.390375 C1.11022302e-16,2.301 0.00325,2.21325 0.0065,2.12875 C0.008125,2.127125 0.008125,2.1255 0.008125,2.123875 L0.008125,2.110875 C0.056875,1.24475 0.326625,0.56875 0.752375,0.117 L0.871,0.23725 C0.326625,0.728 1.11022302e-16,1.55025 1.11022302e-16,2.639 Z" id="Fill-53" fill="url(#linearGradient-33)" mask="url(#mask-32)"></path>
                    </g>
                    <g id="Group-58" transform="translate(1.188688, 0.609379)">
                        <mask id="mask-35" fill="white">
                            <use xlink:href="#path-34"></use>
                        </mask>
                        <g id="Clip-57"></g>
                        <path d="M26.963625,14.18625 L3.37675,0.784875 C2.7235,0.41275 2.104375,0.23725 1.5535,0.23725 C0.99125,0.23725 0.502125,0.420875 0.118625,0.765375 L0,0.645125 C0.037375,0.606125 0.076375,0.56875 0.115375,0.533 C0.117,0.531375 0.118625,0.52975 0.12025,0.528125 C0.5005,0.18525 0.98475,0.00325 1.5405,0 L1.5535,0 C2.104375,0 2.7235,0.1755 3.37675,0.547625 L27.11475,14.035125 L26.963625,14.18625 Z" id="Fill-56" fill="url(#linearGradient-36)" mask="url(#mask-35)"></path>
                    </g>
                </g>
            </g>
        </g>
    </g>
</svg>