<svg xmlns="http://www.w3.org/2000/svg" xmlns:xlink="http://www.w3.org/1999/xlink" width="83" height="83" viewBox="0 0 64 64">
  <defs>
    <filter id="Ellipse_335" x="0" y="0" width="830" height="83" filterUnits="userSpaceOnUse">
      <feOffset dy="3" input="SourceAlpha"/>
      <feGaussianBlur stdDeviation="3" result="blur"/>
      <feFlood flood-opacity="0.365"/>
      <feComposite operator="in" in2="blur"/>
      <feComposite in="SourceGraphic"/>
    </filter>
  </defs>
  <g id="Component_22_74" data-name="Component 22 – 74" transform="translate(9 6)">
    <rect id="Rectangle_1641" data-name="Rectangle 1641" width="46" height="46" rx="23" fill="#fff" opacity="0"/>
    <g transform="matrix(1, 0, 0, 1, -9, -6)" filter="url(#Ellipse_335)">
      <g id="Ellipse_335-2" data-name="Ellipse 335" transform="translate(9 6)" fill="#382d9e" stroke="#fff" stroke-width="3">
        <circle cx="23" cy="23" r="23" stroke="none"/>
        <circle cx="23" cy="23" r="21.5" fill="none"/>
      </g>
    </g>
    <text id="Bikesharing" transform="translate(3 13)" font-size="15" font-family="OpenSans-Semibold, Open Sans" font-weight="600" opacity="0"><tspan x="0" y="16">Bi</tspan></text>
    <g id="Group_8473" data-name="Group 8473" transform="translate(-286.425 -190.304)">
      <path id="Path_10421" data-name="Path 10421" d="M320.585,277.759a1.107,1.107,0,1,1-1.107-1.107,1.107,1.107,0,0,1,1.107,1.107" transform="translate(-21.129 -66.84)" fill="#fff"/>
      <path id="Path_10422" data-name="Path 10422" d="M305.516,256.636a.815.815,0,1,1-.816-.815.816.816,0,0,1,.816.815" transform="translate(-8.362 -48.483)" fill="#fff"/>
      <path id="Path_10423" data-name="Path 10423" d="M315.6,233.063a.691.691,0,1,1-.691-.691.691.691,0,0,1,.691.691" transform="translate(-17.469 -27.819)" fill="#fff"/>
      <path id="Path_10424" data-name="Path 10424" d="M295.6,217.828a.6.6,0,1,1-.6-.6.6.6,0,0,1,.6.6" transform="translate(0 -14.473)" fill="#fff"/>
      <path id="Path_10425" data-name="Path 10425" d="M326.823,201.19a.386.386,0,1,1-.386-.386.386.386,0,0,1,.386.386" transform="translate(-27.896 0)" fill="#fff"/>
      <path id="Path_10426" data-name="Path 10426" d="M356.168,223.18a2.643,2.643,0,0,0-2.566-1.469,2.773,2.773,0,0,0-2.208.94,2.773,2.773,0,0,0-2.208-.94,3.09,3.09,0,0,0-1.545.369.761.761,0,0,0-1.421.381v3.255a.752.752,0,0,0,0,.082v3.466a.762.762,0,1,0,1.523,0v-3.985c0-1.7.575-2.045,1.438-2.045a1.181,1.181,0,0,1,1.192.627,2.768,2.768,0,0,1,.253,1.263v4.125a.762.762,0,1,0,1.523,0v-4.125a2.767,2.767,0,0,1,.253-1.263,1.181,1.181,0,0,1,1.192-.627c.863,0,1.438.348,1.438,2.045v3.985a.762.762,0,1,0,1.523,0v-3.985a4.719,4.719,0,0,0-.395-2.1" transform="translate(-45.669 -18.414)" fill="#fff"/>
      <path id="Path_10427" data-name="Path 10427" d="M444.627,246.656a3.02,3.02,0,1,1,3.02-3.02,3.024,3.024,0,0,1-3.02,3.02m0-4.581a1.561,1.561,0,1,0,1.561,1.561,1.563,1.563,0,0,0-1.561-1.561" transform="translate(-129.728 -35.083)" fill="#fff"/>
      <path id="Path_10428" data-name="Path 10428" d="M498.229,246.561h0a.73.73,0,0,1-.651-.407L495.3,241.54a.73.73,0,0,1,1.31-.645l1.625,3.3,1.669-3.307a.73.73,0,0,1,1.3.658l-2.328,4.614a.73.73,0,0,1-.652.4" transform="translate(-176.981 -34.971)" fill="#fff"/>
      <path id="Path_10429" data-name="Path 10429" d="M388.5,328.56a.754.754,0,0,1-.754-.754v-2.27a2.439,2.439,0,0,0-.221-.956,1.394,1.394,0,0,0-1.384-.8,1.472,1.472,0,0,0-1.128.371,1.856,1.856,0,0,0-.427,1.2.43.43,0,0,1,0,.067,2,2,0,0,0,.189.847,1.413,1.413,0,0,0,1.382.774.754.754,0,1,1-.073,1.505,3.064,3.064,0,0,1-2.221-.961,3.486,3.486,0,0,1,.063-4.48,2.93,2.93,0,0,1,2.235-.834,2.968,2.968,0,0,1,2.185.871,3.609,3.609,0,0,1,.908,2.409v2.249a.754.754,0,0,1-.754.754" transform="translate(-78.153 -107.046)" fill="#fff"/>
      <path id="Path_10430" data-name="Path 10430" d="M474.657,328.9a.754.754,0,0,1-.754-.754v-2.27a2.439,2.439,0,0,0-.221-.956,1.394,1.394,0,0,0-1.384-.8,1.472,1.472,0,0,0-1.128.371,1.856,1.856,0,0,0-.427,1.2.434.434,0,0,1,0,.067,2,2,0,0,0,.189.847,1.413,1.413,0,0,0,1.382.774.754.754,0,1,1-.073,1.505,3.064,3.064,0,0,1-2.221-.961,3.486,3.486,0,0,1,.063-4.48,2.93,2.93,0,0,1,2.235-.834,2.968,2.968,0,0,1,2.185.871,3.609,3.609,0,0,1,.908,2.409v2.249a.754.754,0,0,1-.754.754" transform="translate(-154.075 -107.348)" fill="#fff"/>
      <path id="Path_10431" data-name="Path 10431" d="M322.1,311.334a.754.754,0,0,1-.754-.754v-7.09a.754.754,0,0,1,1.507,0v7.09a.754.754,0,0,1-.754.754" transform="translate(-23.749 -89.828)" fill="#fff"/>
      <path id="Path_10432" data-name="Path 10432" d="M530.94,328.863a.754.754,0,0,1-.754-.754v-4.774a.754.754,0,1,1,1.507,0v4.774a.754.754,0,0,1-.753.754" transform="translate(-207.788 -107.316)" fill="#fff"/>
      <path id="Path_10433" data-name="Path 10433" d="M349.583,309.846c-1.651-.206-1.725-1-1.721-2.516,0-.056,0-.112,0-.168v-.774h1.614a.754.754,0,1,0,0-1.507h-1.614v-1.39a.754.754,0,0,0-1.507,0v3.672q0,.081,0,.164a5.251,5.251,0,0,0,.37,2.37,3.166,3.166,0,0,0,2.671,1.645.771.771,0,0,0,.094.006.754.754,0,0,0,.092-1.5" transform="translate(-45.789 -89.828)" fill="#fff"/>
      <path id="Path_10434" data-name="Path 10434" d="M428.355,329.948a.754.754,0,0,1-.108-1.5,1.975,1.975,0,0,0,1.609-.947,1.554,1.554,0,0,0,.164-.675q0-.028,0-.057v-4.763a.754.754,0,0,1,1.507,0v4.743a3.03,3.03,0,0,1-.324,1.431,3.38,3.38,0,0,1-2.736,1.76.765.765,0,0,1-.11.008" transform="translate(-117.387 -106.144)" fill="#fff"/>
      <path id="Path_10435" data-name="Path 10435" d="M530.04,303.233a.754.754,0,0,1,0-1.066l.592-.592a.754.754,0,0,1,1.066,1.066l-.592.592a.753.753,0,0,1-1.066,0" transform="translate(-207.465 -88.61)" fill="#fff"/>
    </g>
  </g>
</svg>
