<svg xmlns="http://www.w3.org/2000/svg" width="34" height="34" viewBox="0 0 34 34">
  <path id="Path_26" data-name="Path 26" d="M22.409,34H11.454a7.984,7.984,0,0,1-7.967-8V19.272a4.942,4.942,0,0,1-.825-.346l-.007,0L2.615,18.9,2.6,18.892l-.032-.018-.019-.01-.028-.016-.041-.023-.022-.013-.03-.018-.015-.009-.032-.02-.012-.007-.035-.022,0,0A4.091,4.091,0,0,1,.675,16.079l0-.005c-.018-.061-.036-.123-.052-.185l0-.006-.01-.04,0-.014L.6,15.791l0-.016-.009-.038v0c-.006-.028-.012-.056-.018-.084l0-.015L.556,15.6l0-.022-.006-.033,0-.023-.006-.032,0-.025-.008-.051,0-.031,0-.028,0-.028,0-.028,0-.03,0-.027,0-.033,0-.024-.006-.055,0-.02,0-.038,0-.024,0-.035,0-.023,0-.039v-.02c0-.019,0-.038,0-.058v-.01c0-.016,0-.032,0-.048V14.8c0-.013,0-.026,0-.039v-.022c0-.013,0-.027,0-.04s0-.013,0-.02,0-.039,0-.059L3.53,6.227A6.982,6.982,0,0,1,10.459,0H24.4a6.982,6.982,0,0,1,6.9,6.007h0L34.459,14.5q0,.03,0,.059c0,.007,0,.013,0,.02s0,.026,0,.04v.022c0,.013,0,.026,0,.039v.02c0,.015,0,.03,0,.045v.015c0,.019,0,.038,0,.057v.019l0,.039,0,.023,0,.037,0,.022,0,.038,0,.021-.006.055,0,.021,0,.037,0,.024,0,.033,0,.025,0,.032,0,.026-.007.042-.006.034-.005.031-.005.03,0,.026-.006.031,0,.022-.007.034,0,.016c-.006.026-.011.053-.017.079v.006l-.009.038,0,.016-.009.036,0,.016-.01.038,0,.008c-.012.045-.024.09-.037.135v0l-.013.044v0a4.432,4.432,0,0,1-1.715,2.774l0,0-.035.022-.011.007-.032.019-.016.01-.029.018-.032.019-.029.017-.03.017-.018.01-.033.018-.016.009-.041.022-.006,0a4.942,4.942,0,0,1-.825.346V26A7.984,7.984,0,0,1,23.4,34Zm1-3a5,5,0,0,0,4.98-5V19.476a4.952,4.952,0,0,1-2.988-1.4A4.952,4.952,0,0,1,21.91,19.5h-1a4.952,4.952,0,0,1-3.485-1.43,4.952,4.952,0,0,1-3.485,1.43h-1a4.952,4.952,0,0,1-3.485-1.43,4.954,4.954,0,0,1-2.988,1.4V26a5,5,0,0,0,4.98,5h1V26a3.992,3.992,0,0,1,3.983-4h1.992a3.992,3.992,0,0,1,3.983,4v5Zm-7.967-5v5h3.984V26a1,1,0,0,0-1-1H16.433A1,1,0,0,0,15.438,26ZM26.89,14.5a2,2,0,0,0,1.992,2h1a2,2,0,0,0,1.933-1.518L29.462,9.5H26.89Zm-7.967,0a2,2,0,0,0,1.992,2h1a2,2,0,0,0,1.992-2v-5h-4.98Zm-7.967,0a2,2,0,0,0,1.992,2h1a2,2,0,0,0,1.992-2v-5h-4.98Zm-7.907.486A2,2,0,0,0,4.982,16.5h1a2,2,0,0,0,1.992-2v-5H5.421ZM28.354,6.5l-.01-.071A4,4,0,0,0,24.4,3H10.459A3.981,3.981,0,0,0,6.505,6.5H28.354Z" transform="translate(-0.459)" fill="#000"/>
</svg>
