<svg xmlns="http://www.w3.org/2000/svg" width="43" height="43" viewBox="0 0 43 43">
  <g id="Group_8506" data-name="Group 8506" transform="translate(-782 -303)">
    <circle id="Ellipse_335" data-name="Ellipse 335" cx="21.5" cy="21.5" r="21.5" transform="translate(782 303)" fill="#c0ff77"/>
    <path id="Path_31950" data-name="Path 31950" d="M7.993,20.752a5.445,5.445,0,0,0,2.18-.439,5.729,5.729,0,0,0,3.01-3.011,5.652,5.652,0,0,0,0-4.368,5.741,5.741,0,0,0-1.211-1.8,5.6,5.6,0,0,0-1.791-1.211,5.518,5.518,0,0,0-2.188-.435,5.527,5.527,0,0,0-2.19.435,5.641,5.641,0,0,0-1.8,1.211,5.71,5.71,0,0,0-1.214,1.8,5.67,5.67,0,0,0,0,4.376A5.658,5.658,0,0,0,4.009,19.1a5.753,5.753,0,0,0,1.8,1.211A5.469,5.469,0,0,0,7.993,20.752Zm0-1.471a4.07,4.07,0,0,1-2.1-.556,4.159,4.159,0,0,1-1.5-1.5,4.222,4.222,0,0,1,0-4.195A4.225,4.225,0,0,1,5.9,11.525a4.032,4.032,0,0,1,2.093-.56,4.029,4.029,0,0,1,2.093.56,4.23,4.23,0,0,1,1.506,1.505,4.188,4.188,0,0,1,0,4.186,4.23,4.23,0,0,1-1.506,1.506A4.029,4.029,0,0,1,7.993,19.281Zm17.439,1.471a5.446,5.446,0,0,0,2.179-.439,5.7,5.7,0,0,0,3-3,5.673,5.673,0,0,0,0-4.376,5.694,5.694,0,0,0-3-3,5.45,5.45,0,0,0-2.179-.439,5.506,5.506,0,0,0-2.193.439,5.733,5.733,0,0,0-1.8,1.211,5.659,5.659,0,0,0-1.216,1.791,5.668,5.668,0,0,0,0,4.376,5.707,5.707,0,0,0,1.216,1.8,5.646,5.646,0,0,0,1.8,1.211A5.547,5.547,0,0,0,25.432,20.752Zm0-1.471a4.072,4.072,0,0,1-2.1-.556,4.192,4.192,0,0,1-1.506-1.5,4.208,4.208,0,0,1,0-4.195,4.225,4.225,0,0,1,1.506-1.505,4.049,4.049,0,0,1,2.1-.56,3.985,3.985,0,0,1,2.088.564,4.27,4.27,0,0,1,1.5,1.509,4.184,4.184,0,0,1,0,4.182,4.246,4.246,0,0,1-1.5,1.5A4.008,4.008,0,0,1,25.432,19.281Zm-8.1-15.644a.7.7,0,0,0,.213.51.7.7,0,0,0,.518.213h2.29a.115.115,0,0,1,.117.07l4.263,11.009,1.364-.464L21.62,3.52a.96.96,0,0,0-1-.613H18.067a.725.725,0,0,0-.731.73Zm5.6,5.493V7.782l-9.38,1.355v1.348Zm-7.256,6.844V14.618H8.091v1.357Zm.986,1.058a1.835,1.835,0,0,0,.949-.252,1.893,1.893,0,0,0,.68-.68,1.9,1.9,0,0,0,0-1.892,1.893,1.893,0,0,0-.68-.68,1.917,1.917,0,0,0-1.9,0,1.928,1.928,0,0,0-.684.679,1.814,1.814,0,0,0-.258.95,1.757,1.757,0,0,0,.243.942,1.887,1.887,0,0,0,1.65.933Zm0-1.248a.621.621,0,0,1-.448-.184.582.582,0,0,1-.189-.43.622.622,0,0,1,.189-.456.612.612,0,0,1,.448-.189.59.59,0,0,1,.446.189.639.639,0,0,1,.179.457.592.592,0,0,1-.179.435A.605.605,0,0,1,16.67,15.784Zm-8.677.524A1.185,1.185,0,0,0,9.18,15.122a1.162,1.162,0,0,0-.343-.849,1.207,1.207,0,0,0-1.688,0,1.188,1.188,0,0,0-.352.853,1.177,1.177,0,0,0,1.2,1.187Zm17.439.008a1.123,1.123,0,0,0,.835-.351,1.216,1.216,0,0,0,0-1.688,1.133,1.133,0,0,0-.84-.342,1.191,1.191,0,1,0,0,2.382ZM16.339,13.77l1.2.683,5.54-5.919-1.7-.05Zm-8.919.924,1.2.683,5.251-5.415-1.16-.795Zm7.988-.076,1.2-.861L12.687,6.371l-1.406.307ZM9.59,6.183a.726.726,0,0,0,.731.731H13.9a.69.69,0,0,0,.513-.213.713.713,0,0,0,.208-.518.7.7,0,0,0-.212-.505.687.687,0,0,0-.509-.217H10.32a.7.7,0,0,0-.514.217A.693.693,0,0,0,9.59,6.183Z" transform="translate(786.646 312.67)" fill="#132126"/>
  </g>
</svg>
