<svg xmlns="http://www.w3.org/2000/svg" width="43" height="43" viewBox="0 0 43 43">
  <g id="Group_8507" data-name="Group 8507" transform="translate(-819 -444)">
    <path id="Path_31992" data-name="Path 31992" d="M21.5,0A21.5,21.5,0,1,1,0,21.5,21.5,21.5,0,0,1,21.5,0Z" transform="translate(819 444)" fill="#c0ff77"/>
    <path id="Path_31958" data-name="Path 31958" d="M4676.105,4041.958a1.993,1.993,0,0,1-1.939-2.04v-.631h-5.374v.631a1.993,1.993,0,0,1-1.939,2.04h-.281a1.994,1.994,0,0,1-1.94-2.04v-.727a3.306,3.306,0,0,1-2.5-3.2v-6.972h-.653a1.5,1.5,0,0,1-1.479-1.509v-4.3a1.5,1.5,0,0,1,1.479-1.51h.706a3.3,3.3,0,0,1,3.24-2.707h12.112a3.306,3.306,0,0,1,3.24,2.707h.705a1.5,1.5,0,0,1,1.478,1.51v4.3a1.5,1.5,0,0,1-1.478,1.509h-.653v6.972a3.307,3.307,0,0,1-2.5,3.2v.726a1.993,1.993,0,0,1-1.939,2.04Zm-.671-2.04a.729.729,0,0,0,.671.773h.281a.729.729,0,0,0,.672-.773v-.631h-1.625Zm-9.534,0a.729.729,0,0,0,.672.773h.281a.729.729,0,0,0,.671-.773v-.631H4665.9Zm-2.5-3.923a2.027,2.027,0,0,0,2.025,2.025h12.112a2.028,2.028,0,0,0,2.025-2.025v-3.379H4663.4Zm8.659-4.647h7.5v-6.962h-7.5Zm-8.659,0h7.392v-6.962H4663.4Zm17.43-3.593h.652a.228.228,0,0,0,.21-.242v-4.3a.227.227,0,0,0-.21-.241h-.652Zm-19.561-4.539v4.3a.228.228,0,0,0,.21.242h.653v-4.78h-.653A.227.227,0,0,0,4661.268,4023.216Zm2.13-.923v.826h16.162v-.826a2.028,2.028,0,0,0-2.025-2.025h-12.112A2.027,2.027,0,0,0,4663.4,4022.293Zm10.9,13.12a1.968,1.968,0,1,1,1.967,2.017A2,2,0,0,1,4674.3,4035.413Zm1.268,0a.7.7,0,1,0,.7-.75A.726.726,0,0,0,4675.57,4035.413Zm-10.848,0a1.968,1.968,0,1,1,1.967,2.017A2,2,0,0,1,4664.722,4035.413Zm1.268,0a.7.7,0,1,0,.7-.75A.726.726,0,0,0,4665.99,4035.413Zm3.83.633v-1.268h3.319v1.268Z" transform="translate(-3831 -3565)"/>
  </g>
</svg>
