<svg xmlns="http://www.w3.org/2000/svg" width="78" height="96.993" viewBox="0 0 78 96.993">
  <g id="Layer_1" data-name="Layer 1" transform="translate(-0.006 0.011)">
    <g id="Group_495" data-name="Group 495" transform="translate(0.006 -0.011)">
      <path id="Path_1065" data-name="Path 1065" d="M77.609,40.481l-.018-.011a1.237,1.237,0,0,0-1.513.054,30.479,30.479,0,0,1-22.463,6.749,39.1,39.1,0,0,0-14.264,1,.379.379,0,0,0-.063.009,8.581,8.581,0,0,1-4.249-.695A9.087,9.087,0,0,1,29.311,39.4a9.161,9.161,0,0,1,4.523-8.626.484.484,0,0,0,.118-.048,9.462,9.462,0,0,1,7.555-.944c2.875,1.256,4.241,3.093,5.672,5.019a14.467,14.467,0,0,0,6.313,5.48A15.231,15.231,0,0,0,59.564,41.6a14.2,14.2,0,0,0,11.042-5.548,16.021,16.021,0,0,0,.185-19.7A39.834,39.834,0,0,0,49.907,1.5,39.491,39.491,0,0,0,7.6,15.828,39.831,39.831,0,0,0,.01,40.235a.418.418,0,0,0,0,.083A38.818,38.818,0,0,0,12.731,67.78h0l0,0c.106.093.217.192.328.293.323.287.657.585.969.835l.016.011s.005.005.009.007l.013.011.075.063h0a38.4,38.4,0,0,0,24.8,9.039A39.812,39.812,0,0,0,47,77.21,38.494,38.494,0,0,0,73.821,56.675a37.538,37.538,0,0,0,4.155-14.718c.047-.341.1-1.133-.368-1.477ZM49.164,48.034a37.768,37.768,0,0,1,4.331.25,31.179,31.179,0,0,0,21.532-5.711,51.783,51.783,0,0,1-14.86,10.886c-6.316,3-12.593,4.29-19.06,5.616-8.041,1.65-16.355,3.355-25.572,8.361.093-.162.188-.325.287-.49.135-.226.273-.449.413-.671.1-.156.2-.311.3-.465l.027-.041a38.614,38.614,0,0,1,3.423-4.494l.117-.133c.1-.109.2-.221.3-.328a39.986,39.986,0,0,1,16.334-10.7,38.463,38.463,0,0,1,12.435-2.079ZM8.423,16.436A38.476,38.476,0,0,1,49.629,2.48,38.823,38.823,0,0,1,69.98,16.958a15.017,15.017,0,0,1-.167,18.463A13.018,13.018,0,0,1,53.9,39.341c-3.033-1.294-4.424-3.168-5.9-5.151a14.294,14.294,0,0,0-6.1-5.352,32.939,32.939,0,0,0-23-2.2A32.518,32.518,0,0,0,1.035,38.672,38.519,38.519,0,0,1,8.423,16.436Zm3.416,45.148c0,.034,0,.07,0,.1,0,.063.005.126.007.188a30.178,30.178,0,0,0,.413,4.065A37.835,37.835,0,0,1,1.028,40.454a31.852,31.852,0,0,1,36.8-12.042,23.9,23.9,0,0,0-4.042,1.1A32.228,32.228,0,0,0,29.716,31.4,33.415,33.415,0,0,0,11.837,61.584Zm2.362,6.14c-.153-.133-.307-.271-.46-.406l-.208-.187c-.007-.036-.014-.07-.023-.106a29.945,29.945,0,0,1-.653-5.385q-.008-.275-.011-.549v-.047a32.869,32.869,0,0,1,16.4-28.238l.022-.013c.158-.09.318-.176.477-.262.122-.066.246-.131.37-.194l.12-.063c.163-.083.327-.165.49-.246a10.445,10.445,0,0,0-2.427,7.42,10.091,10.091,0,0,0,6.377,9.082,13.35,13.35,0,0,0,1.845.576v0A40.457,40.457,0,0,0,20.289,59.435c-.032.034-.065.068-.1.1-.122.129-.244.258-.364.389-.1.106-.2.21-.293.318l-.059.066a38.536,38.536,0,0,0-4.216,5.6c-.368.592-.723,1.2-1.061,1.811ZM72.938,56.172c-.005.011-.014.023-.02.034a37.485,37.485,0,0,1-26.127,20.01,37.566,37.566,0,0,1-31.427-7.528c.113-.065.226-.127.345-.194a.546.546,0,0,0,.135-.072l.027-.016c.022-.009.043-.018.065-.029l.034-.018c9.149-4.938,17.357-6.621,25.3-8.248,6.544-1.341,12.895-2.644,19.328-5.717A52.779,52.779,0,0,0,76.95,42.041a36.22,36.22,0,0,1-4.01,14.13Z" transform="translate(-0.006 0.011)" fill="#fff"/>
      <path id="Path_1066" data-name="Path 1066" d="M84.6,487.493a3.921,3.921,0,0,1,3.446,2.052.431.431,0,1,0,.757-.413,4.773,4.773,0,0,0-8.971,2.28,4.632,4.632,0,0,0,4.767,4.782,4.779,4.779,0,0,0,4.2-2.5.431.431,0,0,0-.757-.413,3.908,3.908,0,0,1-7.338-1.869,3.855,3.855,0,0,1,3.893-3.918Z" transform="translate(-65.502 -399.282)" fill="#fff"/>
      <path id="Path_1067" data-name="Path 1067" d="M154.879,494.911h-6.313l6.661-6.643a.93.93,0,0,0-.657-1.589h-7.232a.659.659,0,0,0,0,1.318h6.295l-6.645,6.643a.93.93,0,0,0,.657,1.589h7.232a.659.659,0,1,0,0-1.318Z" transform="translate(-120.353 -399.323)" fill="#fff"/>
      <path id="Path_1068" data-name="Path 1068" d="M272.172,486.392a4.873,4.873,0,0,0-4.092,4.809v4.125a.659.659,0,0,0,1.317,0V491.2a3.561,3.561,0,0,1,3-3.511.648.648,0,0,0,.542-.642.662.662,0,0,0-.763-.655Z" transform="translate(-219.963 -399.079)" fill="#fff"/>
      <path id="Path_1069" data-name="Path 1069" d="M305.221,486.18a4.862,4.862,0,1,0,4.853,4.853,4.864,4.864,0,0,0-4.853-4.853Zm0,8.411a3.547,3.547,0,1,1,3.538-3.556A3.565,3.565,0,0,1,305.221,494.591Z" transform="translate(-246.441 -398.912)" fill="#fff"/>
      <path id="Path_1070" data-name="Path 1070" d="M213.487,491.681a.667.667,0,0,0-.61.413.121.121,0,0,0-.018.052,3.545,3.545,0,0,1-3.355,2.425,4.813,4.813,0,0,1-.7-.068l4.952-4.952a.565.565,0,0,0,.122-.637,4.841,4.841,0,0,0-4.378-2.753,4.9,4.9,0,0,0-4.4,7.025,4.327,4.327,0,0,0,2.1,2.167,4.914,4.914,0,0,0,6.9-2.743V492.6a.621.621,0,0,0,.052-.249.665.665,0,0,0-.662-.671Zm-7.305.61a3.725,3.725,0,0,1,.09-2.822,2.962,2.962,0,0,1,1.143-1.35,3.615,3.615,0,0,1,5.022.9l-3.8,3.8A1.5,1.5,0,0,1,206.182,492.291Z" transform="translate(-167.9 -398.896)" fill="#fff"/>
    </g>
  </g>
</svg>
