<svg xmlns="http://www.w3.org/2000/svg" width="38.89" height="25.427" viewBox="0 0 38.89 25.427">
  <path id="Path_998" data-name="Path 998" d="M-4590.129,2896.427a7.669,7.669,0,0,1-5.593-2.46A8.322,8.322,0,0,1-4598,2888.3a8.412,8.412,0,0,1,4.746-7.555,6.926,6.926,0,0,1,1.807-3.575,6.326,6.326,0,0,1,4.6-2.01,6.434,6.434,0,0,1,1.325.136,12.13,12.13,0,0,1,3.978-3.1,12.084,12.084,0,0,1,5.231-1.2,11.987,11.987,0,0,1,8.053,3.1,12.1,12.1,0,0,1,3.735,6.574,7.944,7.944,0,0,1,3.8,2.792,8.168,8.168,0,0,1,1.614,4.838,8.321,8.321,0,0,1-2.277,5.664,7.672,7.672,0,0,1-5.594,2.46Zm-.224-14.6a1.5,1.5,0,0,1-1.045,1.407,5.041,5.041,0,0,0-2.6,1.939,5.486,5.486,0,0,0-1,3.128,5.292,5.292,0,0,0,1.455,3.6,4.692,4.692,0,0,0,3.416,1.524h23.148a4.7,4.7,0,0,0,3.417-1.524,5.29,5.29,0,0,0,1.454-3.6,5.021,5.021,0,0,0-4.012-4.949,1.507,1.507,0,0,1-1.228-1.314,9.025,9.025,0,0,0-2.924-5.716,8.994,8.994,0,0,0-6.042-2.324,9.028,9.028,0,0,0-7.415,3.889,1.5,1.5,0,0,1-1.232.645,1.487,1.487,0,0,1-.569-.112,3.459,3.459,0,0,0-1.316-.26A3.679,3.679,0,0,0-4590.353,2881.83Z" transform="translate(4598 -2871)" fill="#ffa32e"/>
</svg>
