<svg xmlns="http://www.w3.org/2000/svg" width="43" height="43" viewBox="0 0 43 43">
  <g id="Group_537" data-name="Group 537" transform="translate(-59 -197)">
    <circle id="Ellipse_340" data-name="Ellipse 340" cx="21.5" cy="21.5" r="21.5" transform="translate(59 197)" fill="#c0ff77"/>
    <path id="Path_31964" data-name="Path 31964" d="M19.926,16.345a3.891,3.891,0,0,1-1.211-2.2,3.9,3.9,0,0,1-.811.079H9.79a3.872,3.872,0,0,1-7.605,0h-1.1a1.081,1.081,0,0,1-1.079-.974C0,13.21,0,13.173,0,13.136V12.1A6.992,6.992,0,0,1,1.544,7.732a5.476,5.476,0,0,1,1.926-1.3H2.412A2.412,2.412,0,0,1,0,4.019V2.412A2.412,2.412,0,0,1,2.412,0H4.824A2.412,2.412,0,0,1,7.235,2.412V3.2h4.074A2.606,2.606,0,0,1,13.888,5.7a.045.045,0,0,0,0,.011v.036a.245.245,0,0,1,0,.026l0,.017V5.8a.071.071,0,0,1,0,.019.336.336,0,0,1-.008.049.108.108,0,0,1,0,.022c-.006.024-.014.046-.021.068L12.92,8.492a2.235,2.235,0,0,0,.248,2.037,2.157,2.157,0,0,0,1.726.965h2.093a.575.575,0,0,0,.563-.466.4.4,0,0,1,.01-.045,9.4,9.4,0,0,0-.009-4.019A15.528,15.528,0,0,0,16.768,4.3c-.052-.141-.1-.273-.139-.383a2.987,2.987,0,0,1-.261-.787c-.042-.151-.088-.317-.138-.49-.177-.617-.363-1.345-.415-1.555l0-.008-1.49.012A.7.7,0,0,1,13.6.432.4.4,0,0,1,14,.017L15.628,0h.142a.864.864,0,0,1,.689.216l.016.022c.053.082.1.16.153.233l.012.019c.147.225.273.419.354.558l.012.02a1.293,1.293,0,0,1,.076.146L19.976.487A.828.828,0,0,1,20.2.46a.9.9,0,0,1,.893.894V3.086a.9.9,0,0,1-.895.894h-.372l1.2,2.115a.655.655,0,0,1,.04.062l.719,1.263h.238l.024,0h.022l.063,0c.023,0,.046,0,.067,0l.019,0h.035l.031,0,.035,0,.031,0,.031,0h.014l.041.006.041,0,.025,0,.036.005.049.008.012,0,.011,0,.012,0a.29.29,0,0,0,.03.005l.046.008.036.008.017,0,.032.006.015,0,.08.019.023.005.02.005.022.006.034.008.02.006.028.007.022.006a.124.124,0,0,1,.032.01l.006,0,.081.024.028.01a.274.274,0,0,1,.033.01l.108.038.009,0,.014,0,.007,0c.043.016.088.034.136.055l.01,0,.009,0,.007,0,.019.008.091.04.018.009.014.006.022.011.078.037.015.009.021.012.029.014.035.019.031.015.009.005a.2.2,0,0,0,.031.017l.022.014L24,7.99,24.021,8l.018.01.009.005.016.011.016.01.015.011.014.008.035.023a.345.345,0,0,1,.038.025l.017.01.033.024.009.006.024.017.036.025.014.01,0,0,.065.049.052.041c.02.015.041.033.061.05a.568.568,0,0,1,.051.043l.036.031,0,0,.021.019.024.023.009.008.015.015.016.013.008.009a.385.385,0,0,1,.034.032l.028.027a.2.2,0,0,0,.021.019l.016.018.005.005.033.034.007.009.005.005a.4.4,0,0,1,.033.034l.012.013.012.013.031.035,0,.005a.472.472,0,0,1,.04.045l.052.061.01.013.005.006.008.011.006.007a.1.1,0,0,0,.013.014l.019.025.005.007.012.015.013.017.012.015L25.124,9l.023.031.009.014L25.2,9.1l.012.019c.008.01.015.021.022.031l0,0,.011.015.012.018c.006.012.014.023.022.034l.015.025.011.016.012.017.009.014,0,.007c.012.019.023.038.034.058l.013.022c.005.009.011.018.016.029.02.033.041.071.068.125l0,.005.027.051V9.6a.957.957,0,0,1-.253,1.111,3.873,3.873,0,0,1-5.311,5.636Zm3.417-5.3a2.5,2.5,0,0,0-.922.2c-.148.054-.279.1-.4.135l-.075.024a3.036,3.036,0,0,0-1.272.68,2.454,2.454,0,0,0-.743,1.254l-.009.029a1.486,1.486,0,0,1-.051.15,2.666,2.666,0,0,0,2.655,2.621,2.66,2.66,0,0,0,2.653-2.655,2.686,2.686,0,0,0-1.633-2.451C23.482,11.037,23.418,11.04,23.343,11.041ZM4.388,15.6a2.658,2.658,0,0,0,4.143-1.364c-.081,0-.437,0-.977,0-1.462,0-3.973-.006-4.113-.009A2.621,2.621,0,0,0,4.388,15.6ZM7.226,8.294a4.37,4.37,0,0,1,4.363,4.366V13H17.9a2.918,2.918,0,0,0,.444-.03l.019-.007.006,0c.184-.062.315-.224.533-.492a9.77,9.77,0,0,1,.967-1.052c.077-.072.159-.154.246-.244l.007-.006.014-.01.03-.024.074-.058.038-.03.034-.023.02-.015L20.345,11l.047-.034.014-.01.008-.006.017-.012.029-.02.085-.058.013-.008.007-.005.018-.012.02-.013.1-.061.007,0,.025-.014.027-.016.053-.031.021-.013.022-.013.031-.018.017-.01.02-.011.088-.049.013-.006.007,0,.007,0,.017-.008c.026-.014.051-.028.077-.041l.006,0,.031-.015.005,0a.084.084,0,0,0,.017-.01l.015-.006.12-.058.033-.014.041-.02.011,0,.073-.032.029-.012.05-.022.079-.034.024-.009.032-.013.1-.039.018-.007c.035-.014.073-.026.109-.039l.031-.012.013,0,.1-.033h0l.043-.015h.007l.149-.047,0,0a8.586,8.586,0,0,1,1.875-.324s0-.006-.007-.009l-.005-.008-.006-.009L24.126,9.7l-.017-.02L24.1,9.676,24.1,9.668l-.021-.027-.008-.008-.007-.008-.015-.018a.325.325,0,0,0-.022-.027l-.014-.015a.188.188,0,0,1-.018-.02l-.012-.013-.015-.016,0,0-.023-.024a.1.1,0,0,0-.017-.017l-.008-.009-.046-.046-.011-.01L23.851,9.4l-.009-.007-.022-.022L23.8,9.347l-.028-.023-.049-.044-.012-.008-.01-.006-.005-.006-.028-.022-.026-.022L23.611,9.2l-.033-.023-.023-.018-.02-.014-.005,0a.7.7,0,0,0-.06-.04l-.024-.016c-.02-.014-.041-.025-.063-.039l-.022-.014-.011-.005-.026-.015-.029-.016-.022-.013L23.2,8.945l-.022-.011L23.107,8.9l-.019-.008c-.026-.013-.049-.023-.076-.033l-.018-.006-.027-.011-.019-.008-.034-.013L22.9,8.816l-.084-.03-.014,0c-.024-.008-.056-.019-.088-.027l-.012,0-.09-.023-.013,0c-.03-.008-.059-.014-.089-.021l-.014,0-.021,0c-.022-.005-.049-.012-.075-.015l-.006,0-.1-.015h-.005l-.1-.013h-.006c-.036,0-.068-.006-.1-.008h-.006L22,8.64h-.15l0-.236v.236h-.026l-.069,0H21.7a.052.052,0,0,1-.014,0,1.142,1.142,0,0,1-.239.031c-.274,0-.426-.175-.773-.735V7.938l-.637-1.116c-.013-.018-.025-.04-.039-.062l-1.58-2.78h-.4a21.483,21.483,0,0,1,.772,3.094,11.428,11.428,0,0,1,.108,3.434l.005-.01,0-.007a.047.047,0,0,0,.006-.014c0,.023-.009.046-.013.069a4.42,4.42,0,0,1-.456,1.428v-.014a1.8,1.8,0,0,1-1.459.752H14.976c-.048,0-.086,0-.122,0a3.355,3.355,0,0,1-2.7-1.5,3.493,3.493,0,0,1-.382-3.137l.635-1.728H6.98c-.059,0-.12,0-.187,0H6.763l-.149.007-.02,0H6.581A5.781,5.781,0,0,0,1.993,9.224a4.794,4.794,0,0,1,2.843-.93ZM4.842,9.514A3.624,3.624,0,0,0,1.223,13H10.37v-.34A3.15,3.15,0,0,0,7.223,9.514l-.38,0H6.818C6.213,9.5,5.879,9.5,5.627,9.5,5.351,9.5,5.17,9.5,4.842,9.514ZM1.206,4.019A1.207,1.207,0,0,0,2.412,5.225H4.824A1.207,1.207,0,0,0,6.029,4.019V3.7H1.206ZM6.967,5.125H12.5a1.37,1.37,0,0,0-1.186-.7H7.2A2.4,2.4,0,0,1,6.967,5.125Zm10.3-2.7v.335h2.6V1.773ZM6.029,2.495V2.412A1.207,1.207,0,0,0,4.824,1.206H2.412A1.207,1.207,0,0,0,1.206,2.412v.083Z" transform="translate(67.596 209.823)" fill="#132126"/>
  </g>
</svg>
