<svg xmlns="http://www.w3.org/2000/svg" width="43" height="43" viewBox="0 0 43 43">
  <g id="Group_8508" data-name="Group 8508" transform="translate(-763 -488)">
    <circle id="Ellipse_343" data-name="Ellipse 343" cx="21.5" cy="21.5" r="21.5" transform="translate(763 488)" fill="#c0ff77"/>
    <path id="Path_31959" data-name="Path 31959" d="M4666.449,4039.375v-.494c0-.168,0-.4,0-.668.007-.769.018-2.146-.025-2.59l-.465-.423-2.072,4.7a1.867,1.867,0,0,1-.895,1.032,1.753,1.753,0,0,1-.84.2,1.2,1.2,0,0,1-.573-.106,1.708,1.708,0,0,1-.988-.94,1.9,1.9,0,0,1-.056-1.387l.01-.024,2.693-6.278a2.992,2.992,0,0,1-.112-.677,1.648,1.648,0,0,1-1.467.893,1.493,1.493,0,0,1-.507-.1,1.635,1.635,0,0,1-1.068-2.085l1.068-3.412c.164-.495,1.29-1.2,1.95-1.574a6.733,6.733,0,0,1,3.124-1.073,1.9,1.9,0,0,1,1.642.764.408.408,0,0,1,.086.06l3.7,2.966a1.56,1.56,0,0,1,.232,2.063,1.528,1.528,0,0,1-1.252.721,1.043,1.043,0,0,1-.74-.241l-2-1.524c-.072.607-.173,1.2-.253,1.683l-.035.211-.049.273c-.032.18-.057.316-.08.428l1.894,1.7a1.978,1.978,0,0,1,.626,1.466v4.435a1.8,1.8,0,0,1-1.8,1.8A1.779,1.779,0,0,1,4666.449,4039.375Zm.949-4.5c.2.2.346.346.258,4.013v.49a.518.518,0,0,0,.155.394l.023.025a.48.48,0,0,0,.371.171.6.6,0,0,0,.589-.59v-4.517c.019-.179-.154-.375-.236-.469-.023-.026-.044-.05-.064-.077l-2.136-1.93-.021-.034a.614.614,0,0,1-.063-.683,24.416,24.416,0,0,0,.465-2.742c.2-1.583.274-2.566.285-2.8a.691.691,0,0,0-.795-.55c-1.4,0-3.612,1.542-3.913,1.891l-1.093,3.32a.513.513,0,0,0,.029.37.414.414,0,0,0,.253.221l.026.008.026.012a.342.342,0,0,0,.106.008.544.544,0,0,0,.445-.333l.856-2.653a2.844,2.844,0,0,1,1.106-1.22l.067-.034h.021a.418.418,0,0,1,.177-.041.544.544,0,0,1,.463.253.679.679,0,0,1,.1.594,1.243,1.243,0,0,1-.048.365c-.011.063-.024.133-.038.209-.042.218-.092.49-.121.777l-.005.037c-.162.723-.284,1.458-.285,1.464a3.193,3.193,0,0,0-.008,1.271l.249.257Zm-5.729,4.244a.617.617,0,0,0,.027.487l.011.024a.465.465,0,0,0,.3.271l.018.005a.48.48,0,0,0,.178.035.377.377,0,0,0,.2-.054l.021-.011a.661.661,0,0,0,.336-.394l.011-.027,2.2-5.02-.222-.222-.659-.687Zm6.414-11.3,2.508,1.924h.045a.35.35,0,0,0,.224-.176l.014-.022a.415.415,0,0,0,.059-.434l-2.751-2.142Zm-3.769-6.152a2.62,2.62,0,1,1,2.62,2.62A2.613,2.613,0,0,1,4664.314,4021.661Zm1.208,0a1.433,1.433,0,1,0,1.412-1.454A1.431,1.431,0,0,0,4665.522,4021.661Z" transform="translate(-3881.585 -3520.586)"/>
  </g>
</svg>
